<?xml version="1.0" encoding="utf-8"?>
<!-- Generator: Adobe Illustrator 15.0.2, SVG Export Plug-In . SVG Version: 6.00 Build 0)  -->
<!DOCTYPE svg PUBLIC "-//W3C//DTD SVG 1.1//EN" "http://www.w3.org/Graphics/SVG/1.1/DTD/svg11.dtd">
<svg version="1.1" id="Calque_1" xmlns="http://www.w3.org/2000/svg" xmlns:xlink="http://www.w3.org/1999/xlink" x="0px" y="0px"
	 width="26px" height="26px" viewBox="0 0 26 26" enable-background="new 0 0 26 26" xml:space="preserve">
<circle fill="#FFB202" cx="13" cy="13" r="13"/>
<g>
	<path fill="#FFFFFF" d="M9.492,19.305c0.09,0.091,0.09,0.235,0,0.327l0,0c-0.091,0.091-0.237,0.091-0.327,0L6.341,16.81
		c-0.09-0.092-0.09-0.238,0-0.327l0,0c0.09-0.092,0.236-0.092,0.327,0L9.492,19.305z"/>
	<path fill="#FFFFFF" d="M11.121,18.582c0.121,0.121,0.121,0.318,0,0.437l-0.576,0.576c-0.12,0.12-0.315,0.12-0.436,0l-3.704-3.702
		c-0.12-0.12-0.12-0.318,0-0.437l0.576-0.578c0.121-0.118,0.317-0.118,0.436,0L11.121,18.582z"/>
	<path fill="#FFFFFF" d="M12.374,17.331c0.12,0.12,0.12,0.315,0,0.436l-0.576,0.576c-0.121,0.12-0.316,0.12-0.436,0l-3.705-3.704
		c-0.119-0.12-0.119-0.315,0-0.436l0.577-0.576c0.119-0.12,0.315-0.12,0.435,0L12.374,17.331z"/>
	<path fill="#FFFFFF" d="M19.274,9.522c0.089,0.091,0.235,0.091,0.326,0l0,0c0.09-0.09,0.09-0.236,0-0.326l-2.824-2.823
		c-0.089-0.091-0.236-0.091-0.327,0l0,0c-0.089,0.09-0.089,0.236,0,0.326L19.274,9.522z"/>
	<path fill="#FFFFFF" d="M18.552,11.152c0.12,0.12,0.316,0.12,0.437,0l0.575-0.577c0.12-0.12,0.12-0.316,0-0.435l-3.704-3.705
		c-0.12-0.12-0.315-0.12-0.436,0l-0.576,0.576c-0.121,0.121-0.121,0.316,0,0.437L18.552,11.152z"/>
	<path fill="#FFFFFF" d="M17.298,12.405c0.121,0.12,0.315,0.121,0.437,0l0.575-0.576c0.121-0.121,0.121-0.317,0-0.436l-3.701-3.704
		c-0.121-0.12-0.318-0.12-0.437,0l-0.578,0.576c-0.12,0.121-0.119,0.316,0,0.436L17.298,12.405z"/>
	<path fill="#FFFFFF" d="M7.63,18.37c0.115,0.114,0.115,0.302,0,0.417l-1.125,1.127c-0.115,0.114-0.302,0.114-0.417,0l0,0
		c-0.116-0.116-0.116-0.302,0-0.419l1.125-1.125C7.328,18.254,7.515,18.254,7.63,18.37L7.63,18.37z"/>
	<path fill="#FFFFFF" d="M19.914,6.086c0.114,0.116,0.115,0.302,0,0.417l-1.127,1.125c-0.114,0.115-0.302,0.115-0.416,0l0,0
		c-0.117-0.115-0.117-0.302-0.001-0.417l1.126-1.125C19.612,5.971,19.798,5.971,19.914,6.086L19.914,6.086z"/>
	
		<rect x="10.039" y="12.716" transform="matrix(0.707 -0.7072 0.7072 0.707 -5.3962 12.9976)" fill="#FFFFFF" width="5.9" height="0.591"/>
</g>
</svg>
