<?xml version="1.0" encoding="utf-8"?>
<!-- Generator: Adobe Illustrator 15.0.2, SVG Export Plug-In . SVG Version: 6.00 Build 0)  -->
<!DOCTYPE svg PUBLIC "-//W3C//DTD SVG 1.1//EN" "http://www.w3.org/Graphics/SVG/1.1/DTD/svg11.dtd">
<svg version="1.1" id="Calque_1" xmlns="http://www.w3.org/2000/svg" xmlns:xlink="http://www.w3.org/1999/xlink" x="0px" y="0px"
	 width="26px" height="26px" viewBox="0 0 26 26" enable-background="new 0 0 26 26" xml:space="preserve">
<circle fill="#C3CA2F" cx="13" cy="13" r="13"/>
<g>
	<g>
		<path fill="#FFFFFF" d="M9.633,11.206l1.476-2.748l0.981,5.029l0.793-2.281h0.913l0.873-2.225l1.919,3.661l0.471-1.436H19
			c-0.008-2.367-1.643-3.722-3.196-3.722C14.246,7.484,13,8.779,13,8.779s-1.246-1.295-2.803-1.295
			c-1.554,0-3.189,1.354-3.197,3.722H9.633z"/>
		<path fill="#FFFFFF" d="M17.63,12.18l-0.874,2.664l-1.982-3.783l-0.439,1.12h-0.89l-1.567,4.505l-1.117-5.725l-0.655,1.22H7.08
			c0.42,1.967,2.485,3.469,5.92,6.148c3.436-2.679,5.5-4.181,5.92-6.148H17.63z"/>
	</g>
	<rect x="17.92" y="12.18" fill="#FFFFFF" width="3.143" height="0.781"/>
	<rect x="4.937" y="12.18" fill="#FFFFFF" width="3.143" height="0.781"/>
</g>
</svg>
