<?xml version="1.0" encoding="utf-8"?>
<!-- Generator: Adobe Illustrator 15.0.2, SVG Export Plug-In . SVG Version: 6.00 Build 0)  -->
<!DOCTYPE svg PUBLIC "-//W3C//DTD SVG 1.1//EN" "http://www.w3.org/Graphics/SVG/1.1/DTD/svg11.dtd">
<svg version="1.1" id="Calque_1" xmlns="http://www.w3.org/2000/svg" xmlns:xlink="http://www.w3.org/1999/xlink" x="0px" y="0px"
	 width="26px" height="26px" viewBox="0 0 26 26" enable-background="new 0 0 26 26" xml:space="preserve">
<circle fill="#9868FA" cx="13" cy="13" r="13"/>
<g>
	<g>
		<path fill="#FFFFFF" d="M7.549,13.084c1.323-0.533,2.649-1.058,3.971-1.591c0.438,1.721,0.879,3.442,1.317,5.163
			c0.1,0.408,0.142,0.868-0.063,1.249c-0.175,0.326-0.521,0.513-0.872,0.58c-0.353,0.106-0.761,0.006-1.015-0.267
			c-0.2-0.192-0.311-0.472-0.312-0.75c0.021-0.443,0.354-0.835,0.771-0.956c0.31-0.089,0.645-0.172,0.962-0.066
			c-0.284-1.071-0.551-2.146-0.824-3.218c-1.039,0.415-2.071,0.842-3.109,1.259c0.292,1.143,0.584,2.284,0.876,3.427
			c0.097,0.378,0.103,0.795-0.055,1.157c-0.14,0.323-0.442,0.555-0.778,0.639c-0.297,0.084-0.632,0.095-0.915-0.051
			C7.186,19.497,6.989,19.138,7,18.781c0.004-0.405,0.284-0.778,0.653-0.927c0.341-0.14,0.721-0.181,1.086-0.122
			C8.337,16.184,7.951,14.633,7.549,13.084z"/>
	</g>
	<g>
		<path fill="#FFFFFF" d="M13.628,7.82c1.324-0.533,2.649-1.058,3.972-1.591c0.439,1.721,0.877,3.442,1.317,5.163
			c0.099,0.408,0.142,0.869-0.063,1.25c-0.174,0.325-0.521,0.513-0.872,0.58c-0.353,0.105-0.76,0.005-1.017-0.267
			c-0.2-0.193-0.309-0.472-0.311-0.75c0.021-0.443,0.354-0.835,0.771-0.956c0.309-0.089,0.646-0.172,0.962-0.067
			c-0.282-1.071-0.552-2.145-0.825-3.218c-1.038,0.415-2.071,0.842-3.108,1.259c0.292,1.142,0.584,2.284,0.875,3.426
			c0.098,0.38,0.104,0.796-0.055,1.158c-0.139,0.323-0.442,0.555-0.777,0.637c-0.296,0.086-0.633,0.096-0.916-0.048
			c-0.317-0.162-0.514-0.522-0.501-0.878c0.003-0.405,0.281-0.778,0.651-0.928c0.342-0.138,0.722-0.181,1.087-0.121
			C14.417,10.92,14.031,9.368,13.628,7.82z"/>
	</g>
</g>
</svg>
