<?xml version="1.0" encoding="utf-8"?>
<!-- Generator: Adobe Illustrator 15.0.2, SVG Export Plug-In . SVG Version: 6.00 Build 0)  -->
<!DOCTYPE svg PUBLIC "-//W3C//DTD SVG 1.1//EN" "http://www.w3.org/Graphics/SVG/1.1/DTD/svg11.dtd">
<svg version="1.1" id="Calque_1" xmlns="http://www.w3.org/2000/svg" xmlns:xlink="http://www.w3.org/1999/xlink" x="0px" y="0px"
	 width="26px" height="26px" viewBox="0 0 26 26" enable-background="new 0 0 26 26" xml:space="preserve">
<circle fill="#F55734" cx="13" cy="13" r="13"/>
<path fill="#FFFFFF" d="M20.423,17.438c-0.263-0.244-0.405-0.471-0.405-0.471c0-1.103-0.966-1.213-1.501-1.213
	c-0.536,0-1.97-2.034-2.344-2.591c-0.375-0.556-0.291-1.531-0.603-2.323c-0.309-0.793-0.727-0.813-1.164-0.91
	c-0.44-0.096-0.874-0.567-0.874-0.803c0-0.234,0.488-0.813,0.488-1.605c0-0.794-0.514-1.136-0.514-1.318
	c0-0.182-0.46-0.204-0.46-0.204s-0.461,0.022-0.461,0.204c0,0.182-0.513,0.524-0.513,1.318c0,0.792,0.487,1.369,0.487,1.605
	c0,0.235-0.434,0.707-0.874,0.803c-0.439,0.097-0.856,0.118-1.167,0.91c-0.31,0.792-0.225,1.768-0.6,2.323
	c-0.375,0.557-1.808,2.591-2.345,2.591c-0.03,0-0.065,0.004-0.1,0.004C7.029,15.726,5.77,15.646,5.77,15.77
	c0,0.148,0.147,0.11,0.147,0.235c0,0.121-0.009,0.637,0.162,0.637c0.021,0,0.027,0.006,0.026,0.012v0.001
	c-0.024,0.059-0.551,0.3-0.551,0.518c0,0.105,0.181,0.08,0.417-0.003c0.319-0.114,0.739-0.331,0.932-0.462l0.198-0.088
	c0-0.002,0-0.002,0-0.002C7.101,18,7.492,18,7.947,18c0.455,0,5.098,0,5.098,0s4.642,0,5.098,0c0.454,0,0.871-0.316,0.846-0.931
	c-0.026-0.617,0.359,0,0.529,0.213C19.691,17.497,20.598,17.599,20.423,17.438z M6.59,16.298c-0.017,0-0.029,0.002-0.043,0.003
	c-0.015-0.008-0.031-0.013-0.049-0.013c-0.035,0-0.072,0.026-0.103,0.06c-0.083,0.052-0.117,0.125-0.205,0.125
	c-0.012,0-0.021-0.006-0.03-0.01c0.05-0.13,0.121-0.234,0.204-0.322C6.67,16.187,6.793,16.298,6.59,16.298z M11.076,15.858
	c-1.087,0-2.871,0.186-2.871,0.186s1.797-1.199,2.198-1.713C10.802,13.816,11.275,12,11.275,12c0,0.481,0.599,1.773,0.599,2.189
	C11.875,14.603,11.076,15.858,11.076,15.858z M15.017,15.858c0,0-0.8-1.256-0.8-1.669c0-0.416,0.6-1.709,0.6-2.19
	c0,0,0.47,1.817,0.87,2.332c0.398,0.514,2.2,1.713,2.2,1.713S16.102,15.858,15.017,15.858z M19.594,16.502
	c-0.057-0.023-0.108-0.049-0.108-0.107s0.05-0.106,0.108-0.106c0.056,0,0.207,0.106,0.207,0.165
	C19.801,16.513,19.782,16.577,19.594,16.502z"/>
</svg>
