<?xml version="1.0" encoding="utf-8"?>
<!-- Generator: Adobe Illustrator 15.0.2, SVG Export Plug-In . SVG Version: 6.00 Build 0)  -->
<!DOCTYPE svg PUBLIC "-//W3C//DTD SVG 1.1//EN" "http://www.w3.org/Graphics/SVG/1.1/DTD/svg11.dtd">
<svg version="1.1" id="Calque_1" xmlns="http://www.w3.org/2000/svg" xmlns:xlink="http://www.w3.org/1999/xlink" x="0px" y="0px"
	 width="26px" height="26px" viewBox="0 0 26 26" enable-background="new 0 0 26 26" xml:space="preserve">
<circle fill="#D25AD6" cx="13" cy="13" r="13"/>
<path fill="#FFFFFF" d="M18.506,15.92c-0.437,0-0.509,0.294-0.936,0.294c-0.429,0-0.614-1.203-1.365-2.196
	c-0.75-0.992-1.809-1.493-1.809-1.914c0-0.42,0.38-1.211,0.558-1.711c0.179-0.5,0.202-2.632,0.202-3.173s0.058-0.309,0.058-0.841
	S15.002,5,14.704,5c-0.3,0-0.211,0.967-0.211,1.193s-0.306-0.397-0.33-0.144c-0.029,0.292,0.205,0.443,0.253,1.137
	c0.049,0.694-0.068,0.76-0.165,1.357c-0.097,0.598-0.1,1.033-0.245,1.712c-0.146,0.678-0.352,0.903-0.563,1.243
	c-0.21,0.339-0.161,0.678-0.161,0.678c-0.291-0.452-1.457-0.928-1.848-0.928c-0.392,0-0.51,0.509-0.51,0.509
	s-0.108-0.239-0.371,0.024c-0.263,0.262-0.428,1.009-0.428,2.115c0,1.106,0.173,1.421,0.299,1.421c0.127,0,0.277-0.277,0.277-0.277
	c0,0.23,0.404,0.278,0.404,0.278s-0.046,0.13-1.666,0.498c-1.644,0.374-1.774-0.424-2.095-0.662c-0.213-0.159-0.355,0-0.355,0
	s-0.222,0.422-0.222,0.817s0-0.396,0,0s0.065,0.307,0.138,0.51c0.072,0.201,0,0.468,0,0.847c0,0.38,0.67,0.267,0.913,0.267
	c0.242,0,1.759,0.509,2.987,0.509c1.227,0,3.842,0.896,4.497,0.896s0.767-0.267,1.099-0.267c0.331,0,0.266,0.153,1.138,0.153
	c0.871,0,1.695-1.502,1.695-2.002C19.233,16.384,18.942,15.92,18.506,15.92z M12.363,16.757c-1.13,0-1.594,0.227-2.821,0.227
	s-1.981-0.216-1.981-0.808c0,0,0.029-0.079,0.235,0.015c0.226,0.103,0.446,0.367,1.745,0.367c1.299,0,2.939-0.823,2.939-0.823h0.679
	c0,0,1.193-0.021,1.193,0.688C14.353,17.134,13.493,16.757,12.363,16.757z"/>
</svg>
