<?xml version="1.0" encoding="utf-8"?>
<!-- Generator: Adobe Illustrator 15.0.2, SVG Export Plug-In . SVG Version: 6.00 Build 0)  -->
<!DOCTYPE svg PUBLIC "-//W3C//DTD SVG 1.1//EN" "http://www.w3.org/Graphics/SVG/1.1/DTD/svg11.dtd">
<svg version="1.1" id="Calque_1" xmlns="http://www.w3.org/2000/svg" xmlns:xlink="http://www.w3.org/1999/xlink" x="0px" y="0px"
	 width="82px" height="82px" viewBox="0 0 82 82" enable-background="new 0 0 82 82" xml:space="preserve">
<rect x="0.104" fill="#EAE9E8" width="82" height="82"/>
<g>
	<path opacity="0.35" d="M82.104,18.881L70.212,6.99c0.292,0.317,0.474,0.74,0.474,1.202v19.75c0,0.979-0.803,1.781-1.783,1.781
		h-19.75c-0.325,0-0.63-0.09-0.894-0.244l8.058,8.058l-3.667,3.643l6.732,6.731l-0.855,0.389l-28.799,7.787l1.144,4.755
		l-20.185,9.153L22.689,82h59.414V18.881z"/>
</g>
<path opacity="0.75" fill="#FFFFFF" stroke="#726D65" stroke-width="0.2182" stroke-miterlimit="10" d="M70.686,27.943
	c0,0.979-0.803,1.781-1.783,1.781h-19.75c-0.98,0-1.782-0.802-1.782-1.781V8.192c0-0.98,0.802-1.782,1.782-1.782h19.75
	c0.98,0,1.783,0.802,1.783,1.782V27.943z"/>
<linearGradient id="SVGID_1_" gradientUnits="userSpaceOnUse" x1="-94.8145" y1="16.313" x2="-76.1036" y2="34.5783" gradientTransform="matrix(1 0 0 1 144.6353 -7.5254)">
	<stop  offset="0" style="stop-color:#B4222D"/>
	<stop  offset="1" style="stop-color:#E74337"/>
</linearGradient>
<rect x="49.709" y="8.453" fill="url(#SVGID_1_)" width="19.046" height="19.043"/>
<g opacity="0.25">
	<path d="M59.399,11.608c1.652,0,3.306,0.631,4.567,1.892c2.521,2.522,2.521,6.612,0,9.134c-1.262,1.261-2.915,1.892-4.567,1.892
		c-1.653,0-3.306-0.63-4.567-1.892c-2.522-2.522-2.522-6.612,0-9.134C56.094,12.239,57.746,11.608,59.399,11.608 M59.399,10.718
		c-1.964,0-3.81,0.765-5.197,2.153c-1.389,1.388-2.153,3.233-2.153,5.197c0,1.964,0.765,3.81,2.153,5.197
		c1.388,1.388,3.233,2.153,5.197,2.153c1.963,0,3.809-0.764,5.197-2.153c2.865-2.866,2.865-7.528,0-10.394
		C63.208,11.482,61.362,10.718,59.399,10.718L59.399,10.718z"/>
</g>
<g opacity="0.25">
	
		<linearGradient id="SVGID_2_" gradientUnits="userSpaceOnUse" x1="-85.2358" y1="31.9033" x2="-85.2358" y2="19.1468" gradientTransform="matrix(1 0 0 1 144.6353 -7.5254)">
		<stop  offset="0" style="stop-color:#000000"/>
		<stop  offset="1" style="stop-color:#000000;stop-opacity:0"/>
	</linearGradient>
	<circle fill="url(#SVGID_2_)" cx="59.399" cy="18.068" r="6.459"/>
</g>
<g>
	<g>
		<path fill="#FBA4AA" d="M54.832,22.635c-1.211-1.184-1.921-2.865-1.924-4.567c-0.027-1.7,0.639-3.413,1.846-4.646
			c1.192-1.241,2.901-1.99,4.646-2.003c1.742-0.018,3.483,0.688,4.725,1.924c1.238,1.24,1.942,2.982,1.925,4.725
			c-0.013,1.746-0.76,3.452-2.005,4.649c-1.229,1.202-2.945,1.872-4.645,1.843C57.697,24.556,56.017,23.846,54.832,22.635z
			 M54.832,22.635c1.2,1.196,2.882,1.877,4.567,1.859c1.688-0.015,3.334-0.736,4.49-1.94c1.161-1.188,1.805-2.844,1.777-4.486
			c-0.004-1.645-0.689-3.265-1.857-4.41c-1.145-1.169-2.766-1.854-4.41-1.858c-1.644-0.028-3.297,0.615-4.489,1.78
			c-1.2,1.152-1.925,2.802-1.938,4.488C52.954,19.753,53.636,21.435,54.832,22.635z"/>
	</g>
</g>
<g>
	<g>
		<path fill="#FBA4AA" d="M63.047,21.715c-0.944,0.969-2.287,1.539-3.648,1.543c-1.361,0.024-2.732-0.5-3.729-1.467
			c-0.995-0.949-1.606-2.322-1.621-3.725c-0.015-1.404,0.546-2.801,1.549-3.809c0.992-0.988,2.402-1.56,3.802-1.541
			c1.405,0.014,2.773,0.622,3.729,1.625c0.961,0.988,1.491,2.366,1.463,3.725C64.586,19.429,64.016,20.771,63.047,21.715z
			 M63.047,21.715c0.954-0.96,1.496-2.304,1.479-3.648c-0.016-1.347-0.598-2.655-1.561-3.571c-0.948-0.919-2.266-1.424-3.567-1.398
			c-1.306,0.007-2.582,0.548-3.495,1.482c-0.92,0.896-1.472,2.185-1.475,3.487c-0.026,1.303,0.475,2.616,1.401,3.572
			c0.908,0.954,2.223,1.542,3.568,1.555C60.743,23.211,62.087,22.669,63.047,21.715z"/>
	</g>
</g>
<circle fill="#570301" cx="59.398" cy="18.067" r="3.558"/>
<path fill="#3C0007" d="M61.914,18.068c-1.389,1.389-3.643,1.07-5.032-0.319c-0.825-0.826-0.781-1.415,0-2.197
	c1.39-1.39,3.644-1.39,5.032,0C62.947,16.583,62.935,17.049,61.914,18.068z"/>
<g>
	<path d="M10.134,68.112c0.006,0.023,0.014,0.047,0.02,0.07l26.932-7.897c-0.006-0.023-0.01-0.047-0.017-0.07l-0.205-0.697
		L9.928,67.414L10.134,68.112z"/>
	
		<linearGradient id="SVGID_3_" gradientUnits="userSpaceOnUse" x1="663.623" y1="144.793" x2="665.5146" y2="144.793" gradientTransform="matrix(-0.2814 -0.9596 0.9596 -0.2814 71.9286 743.6014)">
		<stop  offset="0" style="stop-color:#787878"/>
		<stop  offset="0.4336" style="stop-color:#767676"/>
		<stop  offset="0.5898" style="stop-color:#6F6F6F"/>
		<stop  offset="0.7011" style="stop-color:#646464"/>
		<stop  offset="0.7911" style="stop-color:#535353"/>
		<stop  offset="0.8682" style="stop-color:#3D3D3D"/>
		<stop  offset="0.9352" style="stop-color:#222222"/>
		<stop  offset="0.9956" style="stop-color:#030303"/>
		<stop  offset="1" style="stop-color:#000000"/>
	</linearGradient>
	<path fill="url(#SVGID_3_)" d="M10.686,69.996l25.052-7.345c1.013-0.297,1.606-1.352,1.349-2.366l-26.932,7.897
		C10.448,69.187,10.686,69.996,10.686,69.996z"/>
	
		<linearGradient id="SVGID_4_" gradientUnits="userSpaceOnUse" x1="674.9668" y1="144.7949" x2="678.5313" y2="144.7949" gradientTransform="matrix(-0.2814 -0.9596 0.9596 -0.2814 71.9286 743.6014)">
		<stop  offset="0" style="stop-color:#000000"/>
		<stop  offset="0.0568" style="stop-color:#141414"/>
		<stop  offset="0.1397" style="stop-color:#2A2A2A"/>
		<stop  offset="0.2375" style="stop-color:#3B3B3B"/>
		<stop  offset="0.3586" style="stop-color:#464646"/>
		<stop  offset="0.5284" style="stop-color:#4D4D4D"/>
		<stop  offset="1" style="stop-color:#4F4F4F"/>
	</linearGradient>
	<path fill="url(#SVGID_4_)" d="M7.044,57.575l0.449,1.536l26.936-7.899l-0.45-1.534c-0.304-1.036-1.4-1.635-2.437-1.332
		L6.491,55.69C6.491,55.69,6.74,56.539,7.044,57.575z"/>
	<rect x="7.474" y="55.082" transform="matrix(-0.9596 0.2813 -0.2813 -0.9596 58.1945 105.7004)" width="28.07" height="3.892"/>
	
		<linearGradient id="SVGID_5_" gradientUnits="userSpaceOnUse" x1="666.3135" y1="144.7949" x2="671.0771" y2="144.7949" gradientTransform="matrix(-0.2814 -0.9596 0.9596 -0.2814 71.9286 743.6014)">
		<stop  offset="0" style="stop-color:#000000"/>
		<stop  offset="0.0158" style="stop-color:#1B1B1B"/>
		<stop  offset="0.0412" style="stop-color:#3F3F3F"/>
		<stop  offset="0.0698" style="stop-color:#5F5F5F"/>
		<stop  offset="0.1013" style="stop-color:#7B7B7B"/>
		<stop  offset="0.137" style="stop-color:#919191"/>
		<stop  offset="0.1787" style="stop-color:#A2A2A2"/>
		<stop  offset="0.2302" style="stop-color:#ADADAD"/>
		<stop  offset="0.3024" style="stop-color:#B4B4B4"/>
		<stop  offset="0.503" style="stop-color:#B6B6B6"/>
		<stop  offset="0.7012" style="stop-color:#B4B4B4"/>
		<stop  offset="0.7726" style="stop-color:#ADADAD"/>
		<stop  offset="0.8235" style="stop-color:#A2A2A2"/>
		<stop  offset="0.8646" style="stop-color:#919191"/>
		<stop  offset="0.8999" style="stop-color:#7B7B7B"/>
		<stop  offset="0.9311" style="stop-color:#5F5F5F"/>
		<stop  offset="0.9593" style="stop-color:#3F3F3F"/>
		<stop  offset="0.9844" style="stop-color:#1B1B1B"/>
		<stop  offset="1" style="stop-color:#000000"/>
	</linearGradient>
	<polygon fill="url(#SVGID_5_)" points="9.928,67.414 36.865,59.518 35.525,54.946 8.589,62.844 	"/>
	
		<linearGradient id="SVGID_6_" gradientUnits="userSpaceOnUse" x1="669.3682" y1="166.5898" x2="672.7861" y2="166.5898" gradientTransform="matrix(-0.2814 -0.9596 0.9596 -0.2814 71.9286 743.6014)">
		<stop  offset="0" style="stop-color:#E74337"/>
		<stop  offset="0.3276" style="stop-color:#E54237"/>
		<stop  offset="0.4457" style="stop-color:#DE3D35"/>
		<stop  offset="0.5298" style="stop-color:#D33633"/>
		<stop  offset="0.5973" style="stop-color:#C22B30"/>
		<stop  offset="0.6364" style="stop-color:#B4222D"/>
	</linearGradient>
	<polygon fill="url(#SVGID_6_)" points="36.001,56.587 49.857,52.524 50.781,51.799 50.064,49.357 48.895,49.245 35.04,53.308 	"/>
	
		<linearGradient id="SVGID_7_" gradientUnits="userSpaceOnUse" x1="669.9131" y1="180.3496" x2="672.8945" y2="180.3496" gradientTransform="matrix(-0.2814 -0.9596 0.9596 -0.2814 71.9286 743.6014)">
		<stop  offset="0" style="stop-color:#E74337"/>
		<stop  offset="0.3276" style="stop-color:#E54237"/>
		<stop  offset="0.4457" style="stop-color:#DE3D35"/>
		<stop  offset="0.5298" style="stop-color:#D33633"/>
		<stop  offset="0.5973" style="stop-color:#C22B30"/>
		<stop  offset="0.6364" style="stop-color:#B4222D"/>
	</linearGradient>
	<path fill="url(#SVGID_7_)" d="M50.064,49.357l0.717,2.441l10.137-2.744c0.788-0.232,1.241-1.06,1.01-1.851
		c-0.231-0.79-1.06-1.242-1.85-1.011L50.064,49.357z"/>
</g>
<path fill="#E74337" d="M58.319,35.58c1.274,1.274,1.845,2.988,1.716,4.668c1.093-1.81,0.874-4.178-0.665-5.717
	c-1.541-1.541-3.909-1.758-5.719-0.666C55.332,33.737,57.046,34.306,58.319,35.58z"/>
<path fill="#B4222D" d="M52.686,41.216c1.815,1.817,4.786,1.794,6.633-0.052c0.28-0.281,0.521-0.589,0.717-0.916
	c0.129-1.68-0.441-3.394-1.716-4.668c-1.273-1.274-2.987-1.843-4.668-1.715c-0.326,0.197-0.634,0.436-0.916,0.718
	C50.89,36.429,50.867,39.397,52.686,41.216z"/>
<path fill="#E74337" d="M66.474,55.6c0.551,0.549,0.796,1.288,0.74,2.011c0.47-0.779,0.376-1.799-0.287-2.464
	c-0.664-0.663-1.685-0.756-2.463-0.286C65.188,54.805,65.926,55.05,66.474,55.6z"/>
<path fill="#B4222D" d="M64.047,58.027c0.783,0.782,2.062,0.773,2.858-0.022c0.12-0.121,0.224-0.255,0.309-0.395
	c0.056-0.723-0.189-1.462-0.74-2.011c-0.548-0.55-1.286-0.795-2.01-0.739c-0.14,0.085-0.273,0.188-0.394,0.31
	C63.273,55.965,63.265,57.244,64.047,58.027z"/>
<path fill="#E74337" d="M73.266,43.789l-5.849,2.357v0.002c-0.256,0.105-0.486,0.274-0.669,0.49
	c-0.323-0.331-0.438-0.837-0.255-1.302c0.127-0.319,0.374-0.557,0.666-0.68l0,0l4.059-1.636v0.003
	c0.834-0.34,1.789-0.375,2.684-0.02c0.283,0.112,0.539,0.259,0.774,0.43c-0.484,0.054-0.961,0.176-1.41,0.36V43.789z"/>
<path fill="#B4222D" d="M75.913,47.766c-0.75,1.891-2.867,2.825-4.729,2.087c-0.354-0.142-0.671-0.332-0.949-0.562v0.002
	l-3.076-2.38c-0.159-0.064-0.298-0.157-0.411-0.274c0.183-0.216,0.413-0.385,0.669-0.49v-0.002l5.849-2.357v0.006
	c0.449-0.185,0.926-0.307,1.41-0.36C75.996,44.388,76.55,46.163,75.913,47.766z"/>
</svg>
