<?xml version="1.0" encoding="utf-8"?>
<!-- Generator: Adobe Illustrator 15.0.2, SVG Export Plug-In . SVG Version: 6.00 Build 0)  -->
<!DOCTYPE svg PUBLIC "-//W3C//DTD SVG 1.1//EN" "http://www.w3.org/Graphics/SVG/1.1/DTD/svg11.dtd">
<svg version="1.1" id="Calque_1" xmlns="http://www.w3.org/2000/svg" xmlns:xlink="http://www.w3.org/1999/xlink" x="0px" y="0px"
	 width="82px" height="82px" viewBox="0 0 82 82" enable-background="new 0 0 82 82" xml:space="preserve">
<rect x="0.104" fill="#DAD6D7" width="82" height="82"/>
<g opacity="0.35">
	<polygon points="82,52.815 64.832,35.647 58.556,41.924 44.634,28.004 37.382,37.382 39.175,39.175 24.861,48.308 17.439,40.886 
		10.912,47.415 19.545,56.049 14.922,60.672 36.251,82 82,82 	"/>
</g>
<g>
	
		<linearGradient id="SVGID_1_" gradientUnits="userSpaceOnUse" x1="170.8418" y1="-84.4937" x2="170.8418" y2="-78.8402" gradientTransform="matrix(0.903 -0.4297 0.4297 0.903 -89.524 191.3587)">
		<stop  offset="0.15" style="stop-color:#FE668F"/>
		<stop  offset="0.4121" style="stop-color:#DD345F"/>
		<stop  offset="0.5394" style="stop-color:#E23C66"/>
		<stop  offset="0.85" style="stop-color:#FE668F"/>
	</linearGradient>
	<polygon fill="url(#SVGID_1_)" points="49.488,37.689 12.077,55.493 9.879,50.874 47.289,33.069 	"/>
	
		<linearGradient id="SVGID_2_" gradientUnits="userSpaceOnUse" x1="155.8115" y1="-71.6313" x2="155.8115" y2="-91.6011" gradientTransform="matrix(0.903 -0.4297 0.4297 0.903 -89.524 191.3587)">
		<stop  offset="0.15" style="stop-color:#FE668F"/>
		<stop  offset="0.25" style="stop-color:#DD345F"/>
		<stop  offset="0.75" style="stop-color:#E23C66"/>
		<stop  offset="0.85" style="stop-color:#FE668F"/>
	</linearGradient>
	<path fill="url(#SVGID_2_)" d="M14.373,40.47c1.412-0.672,3.117-0.066,3.789,1.345l6.138,12.897
		c0.671,1.412,0.066,3.117-1.345,3.789l-5.133,2.442c-1.412,0.673-3.117,0.067-3.789-1.345L7.894,46.701
		c-0.672-1.412-0.066-3.116,1.345-3.787L14.373,40.47z"/>
	
		<linearGradient id="SVGID_3_" gradientUnits="userSpaceOnUse" x1="1105.0059" y1="-576.002" x2="1125.4095" y2="-576.002" gradientTransform="matrix(-0.4297 -0.903 0.903 -0.4297 1042.4788 797.0709)">
		<stop  offset="0.15" style="stop-color:#FE668F"/>
		<stop  offset="0.25" style="stop-color:#DD345F"/>
		<stop  offset="0.75" style="stop-color:#E23C66"/>
		<stop  offset="0.85" style="stop-color:#FE668F"/>
	</linearGradient>
	<path fill="url(#SVGID_3_)" d="M41.516,27.553c1.412-0.672,3.118-0.066,3.789,1.345l6.139,12.898
		c0.671,1.412,0.065,3.115-1.346,3.789l-5.134,2.442c-1.411,0.672-3.116,0.066-3.789-1.346l-6.137-12.897
		c-0.672-1.412-0.066-3.117,1.346-3.789L41.516,27.553z"/>
</g>
<g>
	
		<linearGradient id="SVGID_4_" gradientUnits="userSpaceOnUse" x1="307.9102" y1="-86.8989" x2="307.9102" y2="-81.2444" gradientTransform="matrix(0.7071 -0.7071 0.7071 0.7071 -103.5482 332.0127)">
		<stop  offset="0.15" style="stop-color:#FE668F"/>
		<stop  offset="0.4121" style="stop-color:#DD345F"/>
		<stop  offset="0.5394" style="stop-color:#E23C66"/>
		<stop  offset="0.85" style="stop-color:#FE668F"/>
	</linearGradient>
	<polygon fill="url(#SVGID_4_)" points="71.248,42.063 41.951,71.359 38.333,67.74 67.63,38.445 	"/>
	
		<linearGradient id="SVGID_5_" gradientUnits="userSpaceOnUse" x1="292.8799" y1="-74.0337" x2="292.8799" y2="-94.0039" gradientTransform="matrix(0.7071 -0.7071 0.7071 0.7071 -103.5482 332.0127)">
		<stop  offset="0.15" style="stop-color:#FE668F"/>
		<stop  offset="0.25" style="stop-color:#DD345F"/>
		<stop  offset="0.75" style="stop-color:#E23C66"/>
		<stop  offset="0.85" style="stop-color:#FE668F"/>
	</linearGradient>
	<path fill="url(#SVGID_5_)" d="M39.086,56.436c1.106-1.106,2.916-1.106,4.021,0l10.101,10.1c1.104,1.105,1.104,2.915,0,4.021
		l-4.021,4.019c-1.105,1.107-2.915,1.107-4.02,0L35.067,64.474c-1.105-1.104-1.105-2.913,0-4.019L39.086,56.436z"/>
	
		<linearGradient id="SVGID_6_" gradientUnits="userSpaceOnUse" x1="1107.4102" y1="-438.9341" x2="1127.8129" y2="-438.9341" gradientTransform="matrix(-0.7071 -0.7071 0.7071 -0.7071 1165.8848 523.9936)">
		<stop  offset="0.15" style="stop-color:#FE668F"/>
		<stop  offset="0.25" style="stop-color:#DD345F"/>
		<stop  offset="0.75" style="stop-color:#E23C66"/>
		<stop  offset="0.85" style="stop-color:#FE668F"/>
	</linearGradient>
	<path fill="url(#SVGID_6_)" d="M60.343,35.179c1.105-1.105,2.915-1.105,4.021,0l10.101,10.1c1.105,1.106,1.105,2.915,0,4.021
		l-4.021,4.02c-1.106,1.105-2.915,1.105-4.021,0l-10.1-10.102c-1.106-1.104-1.106-2.914,0-4.019L60.343,35.179z"/>
</g>
</svg>
