<?xml version="1.0" encoding="utf-8"?>
<!-- Generator: Adobe Illustrator 15.0.2, SVG Export Plug-In . SVG Version: 6.00 Build 0)  -->
<!DOCTYPE svg PUBLIC "-//W3C//DTD SVG 1.1//EN" "http://www.w3.org/Graphics/SVG/1.1/DTD/svg11.dtd">
<svg version="1.1" id="Calque_1" xmlns="http://www.w3.org/2000/svg" xmlns:xlink="http://www.w3.org/1999/xlink" x="0px" y="0px"
	 width="82px" height="82px" viewBox="0 0 82 82" enable-background="new 0 0 82 82" xml:space="preserve">
<rect x="0.104" fill="#D8B47A" width="82" height="82"/>
<g opacity="0.35">
	<polygon points="28.289,56.156 27.794,56.448 16.736,45.386 7.138,51.137 18.15,62.149 14.104,64.542 31.563,82 54.132,82 	"/>
	<polygon points="82.104,40.174 73.751,31.821 67.188,38.566 54.885,26.263 54.267,26.439 34.618,6.79 28.592,13.438 44.407,29.251 
		42.455,29.808 59.312,46.665 59.197,46.781 32.686,20.27 17.201,35.755 35.608,54.161 32.081,56.052 58.03,82 82.104,82 	"/>
</g>
<linearGradient id="SVGID_1_" gradientUnits="userSpaceOnUse" x1="30.2002" y1="66.4063" x2="29.714" y2="74.4604">
	<stop  offset="0" style="stop-color:#D700C2"/>
	<stop  offset="0.5758" style="stop-color:#F356CB"/>
	<stop  offset="1" style="stop-color:#D700C2"/>
</linearGradient>
<path fill="url(#SVGID_1_)" d="M34.377,68.5c2.282,1.318-3.589,6.02-5.735,6.221c-2.145,0.202-3.568,0.166-3.568-3.877
	C25.074,70.844,24.742,62.937,34.377,68.5z"/>
<linearGradient id="SVGID_2_" gradientUnits="userSpaceOnUse" x1="54.8916" y1="25.8525" x2="46.839" y2="30.087">
	<stop  offset="0" style="stop-color:#D700C2"/>
	<stop  offset="0.5758" style="stop-color:#F356CB"/>
	<stop  offset="1" style="stop-color:#D700C2"/>
</linearGradient>
<path fill="url(#SVGID_2_)" d="M46.388,25.34c0.039-2.774,7.678-0.345,9.019,1.424c1.341,1.771,2.068,3.043-1.8,5.396
	C53.606,32.161,46.223,37.054,46.388,25.34z"/>
<radialGradient id="SVGID_3_" cx="49.8008" cy="66.5176" r="11.6555" gradientUnits="userSpaceOnUse">
	<stop  offset="0" style="stop-color:#D700C2"/>
	<stop  offset="0.5758" style="stop-color:#F356CB"/>
	<stop  offset="1" style="stop-color:#D700C2"/>
</radialGradient>
<path fill="url(#SVGID_3_)" d="M53.99,70.426c-0.692,2.688-7.543-1.475-8.428-3.512c-0.887-2.036-1.293-3.444,3.021-4.819
	C48.584,62.095,56.913,59.082,53.99,70.426z"/>
<linearGradient id="SVGID_4_" gradientUnits="userSpaceOnUse" x1="50.0205" y1="28.1396" x2="41.5503" y2="22.3771">
	<stop  offset="0" style="stop-color:#D700C2"/>
	<stop  offset="0.5758" style="stop-color:#F356CB"/>
	<stop  offset="1" style="stop-color:#D700C2"/>
</linearGradient>
<path fill="url(#SVGID_4_)" d="M43.445,30.171c-3.022,0.146-2.344-8.813-0.768-10.477c1.578-1.665,2.773-2.59,6.321,1.7
	C48.999,21.394,56.207,29.555,43.445,30.171z"/>
<linearGradient id="SVGID_5_" gradientUnits="userSpaceOnUse" x1="32.9526" y1="51.9482" x2="42.1169" y2="57.2247">
	<stop  offset="0" style="stop-color:#D700C2"/>
	<stop  offset="0.5758" style="stop-color:#F356CB"/>
	<stop  offset="1" style="stop-color:#D700C2"/>
</linearGradient>
<path fill="url(#SVGID_5_)" d="M39.796,51.196c1.389,0.764,3.194,4.026,2.292,6.353c-0.902,2.325-3.194,3.021-5.38,0.799
	c-2.187-2.222-6.248-0.738-4.687-5.068C33.235,49.912,39.796,51.196,39.796,51.196z"/>
<linearGradient id="SVGID_6_" gradientUnits="userSpaceOnUse" x1="30.9336" y1="6.6953" x2="34.4048" y2="16.9005">
	<stop  offset="0" style="stop-color:#D700C2"/>
	<stop  offset="0.5758" style="stop-color:#F356CB"/>
	<stop  offset="1" style="stop-color:#D700C2"/>
</linearGradient>
<path fill="url(#SVGID_6_)" d="M28.592,13.436c-0.66-1.533-0.047-5.412,2.208-6.759c2.254-1.347,4.607-0.441,4.987,2.819
	c0.378,3.261,4.711,4.658,0.61,7.243C33.208,18.749,28.592,13.436,28.592,13.436z"/>
<g>
	<circle fill="#D6C2A1" cx="25.073" cy="28.163" r="10.969"/>
	<circle fill="#CBBC9D" cx="25.073" cy="28.163" r="7.613"/>
	<circle fill="#F2E6D8" cx="25.073" cy="28.163" r="7.146"/>
	<circle fill="#ECE0C8" cx="25.073" cy="28.163" r="3.269"/>
	<circle fill="#FFF4E2" cx="25.073" cy="28.163" r="2.161"/>
	<path fill="#FFF4E2" d="M27.077,28.97c0,0-1.011,1.95-0.912,3.888c0,0-0.438-0.762-2.398-2.978
		C21.805,27.664,27.077,28.97,27.077,28.97z"/>
	
		<ellipse transform="matrix(0.7069 0.7073 -0.7073 0.7069 27.3712 -9.5761)" fill="#FCFFFF" cx="25.241" cy="28.241" rx="0.74" ry="1.077"/>
</g>
<radialGradient id="SVGID_7_" cx="192.5586" cy="46.873" r="30.776" gradientTransform="matrix(0.9799 0.1996 -0.1464 0.7188 -162.2253 -12.7096)" gradientUnits="userSpaceOnUse">
	<stop  offset="0" style="stop-color:#B4B4BE"/>
	<stop  offset="0.0313" style="stop-color:#AFAFB8"/>
	<stop  offset="0.0728" style="stop-color:#9F9FA7"/>
	<stop  offset="0.12" style="stop-color:#86868C"/>
	<stop  offset="0.1713" style="stop-color:#636366"/>
	<stop  offset="0.2255" style="stop-color:#373735"/>
	<stop  offset="0.2265" style="stop-color:#363634"/>
	<stop  offset="0.3738" style="stop-color:#2A2A28"/>
</radialGradient>
<path fill="url(#SVGID_7_)" d="M11.656,59.332c-1.032-3.893,6.877-9.741,15.759-3.869C36.298,61.336,16.323,76.929,11.656,59.332z"
	/>
<radialGradient id="SVGID_8_" cx="62.7412" cy="141.2939" r="41.9211" gradientTransform="matrix(0.1882 1.3317 -0.3581 0.1274 104.1214 -36.8141)" gradientUnits="userSpaceOnUse">
	<stop  offset="0" style="stop-color:#B4B4BE"/>
	<stop  offset="0.0313" style="stop-color:#AFAFB8"/>
	<stop  offset="0.0728" style="stop-color:#9F9FA7"/>
	<stop  offset="0.12" style="stop-color:#86868C"/>
	<stop  offset="0.1713" style="stop-color:#636366"/>
	<stop  offset="0.2255" style="stop-color:#373735"/>
	<stop  offset="0.2265" style="stop-color:#363634"/>
	<stop  offset="0.3738" style="stop-color:#2A2A28"/>
</radialGradient>
<path fill="url(#SVGID_8_)" d="M61.002,56.389c1.334-5.07,9.793-4.832,12.777,8.907C76.766,79.033,54.972,79.317,61.002,56.389z"/>
<radialGradient id="SVGID_9_" cx="192.792" cy="32.124" r="20.9042" gradientTransform="matrix(0.9799 0.1996 -0.1464 0.7188 -173.4081 -13.9962)" gradientUnits="userSpaceOnUse">
	<stop  offset="0" style="stop-color:#B4B4BE"/>
	<stop  offset="0.0313" style="stop-color:#AFAFB8"/>
	<stop  offset="0.0728" style="stop-color:#9F9FA7"/>
	<stop  offset="0.12" style="stop-color:#86868C"/>
	<stop  offset="0.1713" style="stop-color:#636366"/>
	<stop  offset="0.2255" style="stop-color:#373735"/>
	<stop  offset="0.2265" style="stop-color:#363634"/>
	<stop  offset="0.3738" style="stop-color:#2A2A28"/>
</radialGradient>
<path fill="url(#SVGID_9_)" d="M5.409,47.517c-0.701-2.644,4.671-6.616,10.704-2.628C22.146,48.878,8.579,59.469,5.409,47.517z"/>
<radialGradient id="SVGID_10_" cx="2.3569" cy="487.3779" r="30.7786" fx="-0.4346" fy="488.0081" gradientTransform="matrix(-0.8124 1.2041 -0.5454 -0.537 334.7825 299.1039)" gradientUnits="userSpaceOnUse">
	<stop  offset="0" style="stop-color:#B4B4BE"/>
	<stop  offset="0.0313" style="stop-color:#AFAFB8"/>
	<stop  offset="0.0728" style="stop-color:#9F9FA7"/>
	<stop  offset="0.12" style="stop-color:#86868C"/>
	<stop  offset="0.1713" style="stop-color:#636366"/>
	<stop  offset="0.2255" style="stop-color:#373735"/>
	<stop  offset="0.2265" style="stop-color:#363634"/>
	<stop  offset="0.3738" style="stop-color:#2A2A28"/>
</radialGradient>
<path fill="url(#SVGID_10_)" d="M75.36,33.808c2.484,3.624-3.619,16.803-14.984,17.324C49.013,51.652,64.13,17.424,75.36,33.808z"/>
</svg>
