<?xml version="1.0" encoding="utf-8"?>
<!-- Generator: Adobe Illustrator 15.0.2, SVG Export Plug-In . SVG Version: 6.00 Build 0)  -->
<!DOCTYPE svg PUBLIC "-//W3C//DTD SVG 1.1//EN" "http://www.w3.org/Graphics/SVG/1.1/DTD/svg11.dtd">
<svg version="1.1" id="Calque_1" xmlns="http://www.w3.org/2000/svg" xmlns:xlink="http://www.w3.org/1999/xlink" x="0px" y="0px"
	 width="512px" height="512px" viewBox="0 0 512 512" enable-background="new 0 0 512 512" xml:space="preserve">
<g opacity="0.15">
	<path fill="none" d="M256.001,102.467c15.367,0,25.634-10.253,25.634-25.621c0-15.369-10.267-25.619-25.634-25.619
		c-15.369,0-25.621,10.25-25.621,25.62C230.38,92.215,240.632,102.467,256.001,102.467z"/>
	<path fill="#2D2D2D" d="M435.329,51.227H327.743C317.479,20.486,289.319,0,256.001,0c-33.306,0-61.479,20.485-71.729,51.227H76.686
		c-28.17,0-51.225,23.051-51.225,51.24v358.263c0,28.219,23.054,51.271,51.225,51.271h358.644c28.154,0,51.209-23.052,51.209-51.271
		V102.467C486.538,74.278,463.484,51.227,435.329,51.227z M256.001,51.227c15.367,0,25.634,10.25,25.634,25.619
		c0,15.368-10.267,25.621-25.634,25.621c-15.369,0-25.621-10.252-25.621-25.62C230.38,61.477,240.632,51.227,256.001,51.227z
		 M306.961,408.458H128.097V357.17h178.864V408.458z M383.706,306.535H128.097v-51.288h255.609V306.535z M383.706,204.612H128.097
		v-51.288h255.609V204.612z"/>
</g>
</svg>
