<?xml version="1.0" encoding="utf-8"?>
<!-- Generator: Adobe Illustrator 15.0.2, SVG Export Plug-In . SVG Version: 6.00 Build 0)  -->
<!DOCTYPE svg PUBLIC "-//W3C//DTD SVG 1.1//EN" "http://www.w3.org/Graphics/SVG/1.1/DTD/svg11.dtd">
<svg version="1.1" id="Calque_1" xmlns="http://www.w3.org/2000/svg" xmlns:xlink="http://www.w3.org/1999/xlink" x="0px" y="0px"
	 width="300.684px" height="300.683px" viewBox="582.083 69.384 300.684 300.683"
	 enable-background="new 582.083 69.384 300.684 300.683" xml:space="preserve">
<g>
	<path fill="#FFFBFF" d="M825.587,216.426c-4.887-4.887-9.563-9.165-14.046-12.883l-0.038-0.036l-0.009-0.003
		c-25.996-21.557-45.323-24.164-59.689-15.892c-18.421-79.025-54.717-85.778-54.717-85.778l-49.825,35.816
		c58.9,0,63.027,199.968,63.027,199.968l51.978-41.738c0-21.147,1.715-37.485,4.578-50.026c5.428,3.176,8.967,6.433,8.967,6.433
		L825.587,216.426z"/>
	<path opacity="0.1" fill="#542954" enable-background="new    " d="M741.393,196.339c3.144-3.573,6.603-6.533,10.412-8.727
		c-18.421-79.025-54.717-85.779-54.717-85.779l-49.825,35.816C647.263,137.649,708.24,134.701,741.393,196.339z"/>
	<path fill="none" d="M720.511,262.86c-0.325,0.785-0.644,1.594-0.956,2.428C719.867,264.453,720.186,263.644,720.511,262.86z"/>
	<path fill="none" d="M719.439,265.597c-0.14,0.377-0.278,0.759-0.416,1.147C719.161,266.356,719.299,265.974,719.439,265.597z"/>
	<path fill="none" d="M721.078,261.523c-0.151,0.345-0.3,0.695-0.448,1.05C720.778,262.218,720.927,261.867,721.078,261.523z"/>
	<path fill="none" d="M723.985,255.71c-0.18,0.314-0.358,0.634-0.537,0.959C723.627,256.344,723.806,256.024,723.985,255.71z"/>
	<path fill="none" d="M718.416,268.518c-0.125,0.378-0.25,0.761-0.373,1.148C718.166,269.28,718.291,268.896,718.416,268.518z"/>
	<path fill="none" d="M723.342,256.868c-0.15,0.277-0.301,0.56-0.448,0.846C723.041,257.428,723.191,257.145,723.342,256.868z"/>
	<path fill="none" d="M717.965,269.913c-0.144,0.457-0.286,0.921-0.426,1.39C717.679,270.834,717.821,270.37,717.965,269.913z"/>
	<path fill="none" d="M722.787,257.919c-0.175,0.339-0.348,0.683-0.52,1.034C722.439,258.602,722.612,258.257,722.787,257.919z"/>
	<path fill="none" d="M722.185,259.125c-0.148,0.303-0.295,0.611-0.439,0.923C721.89,259.737,722.036,259.428,722.185,259.125z"/>
	<path fill="none" d="M721.627,260.3c-0.168,0.366-0.336,0.736-0.502,1.114C721.291,261.036,721.459,260.666,721.627,260.3z"/>
	<path fill="none" d="M718.973,266.885c-0.151,0.43-0.301,0.867-0.449,1.31C718.672,267.753,718.821,267.315,718.973,266.885z"/>
	<path fill="none" d="M715.254,280.2c-0.241,1.101-0.476,2.229-0.701,3.385C714.778,282.428,715.013,281.301,715.254,280.2z"/>
	<path fill="none" d="M714.131,285.823c-0.107,0.592-0.212,1.193-0.315,1.8C713.919,287.016,714.023,286.415,714.131,285.823z"/>
	<path fill="none" d="M714.466,284.039c-0.1,0.517-0.198,1.04-0.295,1.568C714.268,285.079,714.366,284.556,714.466,284.039z"/>
	<path fill="none" d="M717.445,271.62c-0.116,0.394-0.232,0.793-0.347,1.197C717.213,272.413,717.328,272.014,717.445,271.62z"/>
	<path fill="none" d="M713.737,288.084c-0.086,0.514-0.17,1.031-0.253,1.554C713.568,289.115,713.651,288.597,713.737,288.084z"/>
	<path fill="none" d="M715.678,278.33c-0.111,0.476-0.221,0.958-0.33,1.444C715.457,279.288,715.566,278.806,715.678,278.33z"/>
	<path fill="none" d="M716.531,274.893c-0.112,0.425-0.223,0.855-0.333,1.291C716.309,275.748,716.419,275.318,716.531,274.893z"/>
	<path fill="none" d="M717.007,273.139c-0.136,0.487-0.271,0.978-0.403,1.478C716.736,274.118,716.871,273.627,717.007,273.139z"/>
	<path fill="none" d="M716.102,276.57c-0.128,0.516-0.254,1.037-0.379,1.567C715.848,277.607,715.974,277.086,716.102,276.57z"/>
	<path fill="none" d="M729.708,247.888c-0.202,0.212-0.405,0.43-0.606,0.653C729.303,248.318,729.506,248.1,729.708,247.888z"/>
	<path fill="none" d="M735.242,243.353c-0.209,0.128-0.419,0.263-0.628,0.4C734.823,243.616,735.033,243.481,735.242,243.353z"/>
	<path fill="none" d="M736.626,242.564c-0.2,0.105-0.4,0.215-0.6,0.327C736.226,242.779,736.426,242.67,736.626,242.564z"/>
	<path fill="none" d="M735.916,242.954c-0.221,0.126-0.441,0.256-0.66,0.39C735.476,243.21,735.695,243.08,735.916,242.954z"/>
	<path fill="none" d="M724.544,254.762c-0.158,0.263-0.316,0.53-0.474,0.802C724.228,255.293,724.386,255.026,724.544,254.762z"/>
	<path fill="none" d="M732.455,245.336c-0.211,0.172-0.422,0.351-0.633,0.533C732.033,245.687,732.244,245.508,732.455,245.336z"/>
	<path fill="none" d="M734.492,243.834c-0.429,0.285-0.856,0.588-1.281,0.91C733.636,244.422,734.063,244.119,734.492,243.834z"/>
	<path fill="none" d="M740.258,241.028L740.258,241.028c-0.226,0.074-0.452,0.152-0.678,0.233
		C739.806,241.179,740.031,241.101,740.258,241.028z"/>
	<path fill="none" d="M737.352,242.197c-0.222,0.107-0.443,0.218-0.663,0.333C736.908,242.415,737.13,242.304,737.352,242.197z"/>
	<path fill="none" d="M739.475,241.299c-0.206,0.075-0.411,0.153-0.615,0.235C739.063,241.452,739.269,241.374,739.475,241.299z"/>
	<path fill="none" d="M738.039,241.879c-0.197,0.088-0.396,0.179-0.594,0.273C737.644,242.058,737.841,241.967,738.039,241.879z"/>
	<path fill="none" d="M733.088,244.838c-0.203,0.156-0.406,0.315-0.607,0.479C732.682,245.153,732.885,244.993,733.088,244.838z"/>
	<path fill="none" d="M727.063,251.019c-0.388,0.514-0.771,1.048-1.149,1.604C726.293,252.067,726.676,251.532,727.063,251.019z"/>
	<path fill="none" d="M731.704,245.971c-0.187,0.164-0.371,0.329-0.557,0.5C731.333,246.301,731.519,246.135,731.704,245.971z"/>
	<path fill="none" d="M727.738,250.148c-0.184,0.229-0.366,0.464-0.547,0.703C727.372,250.612,727.555,250.377,727.738,250.148z"/>
	<path fill="none" d="M725.222,253.671c-0.188,0.292-0.372,0.589-0.557,0.891C724.85,254.26,725.034,253.963,725.222,253.671z"/>
	<path fill="none" d="M725.785,252.813c-0.174,0.26-0.349,0.523-0.521,0.792C725.437,253.336,725.611,253.073,725.785,252.813z"/>
	<path fill="none" d="M728.371,249.379c-0.199,0.236-0.397,0.475-0.595,0.721C727.974,249.854,728.172,249.615,728.371,249.379z"/>
	<path fill="none" d="M713.427,290c-0.099,0.622-0.193,1.252-0.287,1.889C713.233,291.252,713.328,290.622,713.427,290z"/>
	<path fill="none" d="M731.07,246.542c-0.207,0.192-0.413,0.389-0.619,0.591C730.657,246.931,730.863,246.734,731.07,246.542z"/>
	<path fill="none" d="M729.021,248.631c-0.178,0.197-0.354,0.399-0.529,0.605C728.669,249.031,728.845,248.829,729.021,248.631z"/>
	<path fill="none" d="M738.801,241.556c-0.224,0.09-0.447,0.184-0.67,0.282C738.354,241.74,738.577,241.646,738.801,241.556z"/>
	<path fill="none" d="M710.927,314.313c-0.039,0.67-0.077,1.345-0.112,2.027C710.85,315.658,710.888,314.984,710.927,314.313z"/>
	<path fill="none" d="M710.789,316.814c-0.041,0.813-0.08,1.634-0.116,2.463C710.709,318.448,710.748,317.627,710.789,316.814z"/>
	<path fill="none" d="M712.215,299.031c-0.079,0.692-0.155,1.39-0.229,2.097C712.06,300.421,712.136,299.723,712.215,299.031z"/>
	<path fill="none" d="M710.648,319.865c-0.029,0.689-0.057,1.385-0.082,2.085C710.592,321.251,710.619,320.555,710.648,319.865z"/>
	<path fill="none" d="M711.958,301.395c-0.065,0.633-0.129,1.274-0.191,1.92C711.829,302.669,711.893,302.028,711.958,301.395z"/>
	<path fill="none" d="M711.512,306.115c-0.064,0.746-0.125,1.502-0.184,2.264C711.387,307.616,711.447,306.86,711.512,306.115z"/>
	<path fill="none" d="M711.282,308.984c-0.053,0.676-0.101,1.357-0.148,2.047C711.182,310.342,711.229,309.66,711.282,308.984z"/>
	<path fill="none" d="M711.112,311.34c-0.053,0.777-0.102,1.563-0.149,2.355C711.011,312.903,711.06,312.117,711.112,311.34z"/>
	<path fill="none" d="M729.814,247.777c0.177-0.184,0.355-0.365,0.533-0.541C730.17,247.413,729.991,247.594,729.814,247.777z"/>
	<path fill="none" d="M710.29,337.617c0-0.955,0.005-1.898,0.01-2.835C710.295,335.719,710.29,336.662,710.29,337.617z"/>
	<path fill="none" d="M710.33,331.59c-0.011,0.809-0.019,1.625-0.024,2.447C710.312,333.215,710.319,332.398,710.33,331.59z"/>
	<path fill="none" d="M710.448,325.636c-0.02,0.731-0.037,1.469-0.054,2.213C710.411,327.106,710.429,326.368,710.448,325.636z"/>
	<path fill="none" d="M710.38,328.535c-0.017,0.891-0.033,1.789-0.046,2.697C710.347,330.324,710.362,329.426,710.38,328.535z"/>
	<path fill="none" d="M710.544,322.545c-0.029,0.851-0.057,1.709-0.081,2.577C710.487,324.254,710.515,323.396,710.544,322.545z"/>
	<path fill="none" d="M711.712,303.889c-0.068,0.731-0.136,1.467-0.2,2.213C711.576,305.355,711.644,304.619,711.712,303.889z"/>
	<path fill="none" d="M712.787,294.4c-0.088,0.656-0.174,1.318-0.258,1.988C712.613,295.718,712.698,295.055,712.787,294.4z"/>
	<path fill="none" d="M712.48,296.785c-0.07,0.566-0.139,1.137-0.205,1.714C712.342,297.923,712.41,297.351,712.48,296.785z"/>
	<path fill="none" d="M713.075,292.337c-0.076,0.53-0.152,1.065-0.226,1.605C712.923,293.402,712.999,292.866,713.075,292.337z"/>
	<path opacity="0.05" fill="#542954" enable-background="new    " d="M811.503,203.507l-0.009-0.003
		c0.016,0.013,0.031,0.026,0.047,0.039L811.503,203.507z"/>
	<path opacity="0.05" fill="#542954" enable-background="new    " d="M757.205,241.477c-5.282-1.683-11.174-2.324-16.947-0.45l0,0
		c-0.227,0.074-0.453,0.152-0.678,0.233c-0.036,0.012-0.071,0.026-0.105,0.038c-0.206,0.075-0.412,0.153-0.616,0.235
		c-0.02,0.008-0.039,0.015-0.058,0.022c-0.224,0.09-0.447,0.184-0.671,0.282c-0.03,0.014-0.061,0.028-0.091,0.042
		c-0.198,0.088-0.396,0.179-0.595,0.273c-0.031,0.015-0.062,0.029-0.093,0.044c-0.223,0.107-0.443,0.218-0.664,0.333
		c-0.021,0.011-0.041,0.022-0.063,0.034c-0.2,0.105-0.399,0.215-0.6,0.327c-0.036,0.021-0.074,0.042-0.11,0.063
		c-0.221,0.126-0.441,0.255-0.66,0.39c-0.004,0.003-0.009,0.005-0.013,0.008c-0.21,0.129-0.42,0.263-0.629,0.4
		c-0.041,0.026-0.081,0.053-0.122,0.081c-0.429,0.285-0.856,0.588-1.281,0.91c-0.041,0.031-0.082,0.063-0.123,0.094
		c-0.203,0.156-0.406,0.315-0.607,0.479c-0.008,0.007-0.017,0.013-0.024,0.019c-0.212,0.172-0.423,0.351-0.634,0.533
		c-0.039,0.035-0.078,0.069-0.117,0.104c-0.188,0.163-0.372,0.329-0.558,0.5c-0.025,0.023-0.051,0.046-0.077,0.07
		c-0.207,0.192-0.413,0.389-0.618,0.591c-0.036,0.035-0.069,0.069-0.104,0.104c-0.179,0.176-0.355,0.357-0.533,0.541
		c-0.035,0.037-0.071,0.073-0.106,0.11c-0.202,0.213-0.404,0.43-0.606,0.654c-0.026,0.029-0.053,0.06-0.079,0.09
		c-0.178,0.197-0.354,0.399-0.53,0.605c-0.039,0.048-0.08,0.094-0.121,0.142c-0.199,0.236-0.397,0.476-0.595,0.721
		c-0.013,0.016-0.025,0.032-0.038,0.048c-0.183,0.229-0.365,0.464-0.547,0.703c-0.043,0.056-0.085,0.113-0.128,0.169
		c-0.388,0.513-0.771,1.048-1.149,1.604c-0.042,0.063-0.085,0.126-0.128,0.189c-0.175,0.26-0.35,0.523-0.521,0.792
		c-0.015,0.022-0.029,0.043-0.043,0.066c-0.187,0.291-0.372,0.588-0.557,0.891c-0.04,0.066-0.08,0.133-0.121,0.2
		c-0.158,0.263-0.316,0.53-0.474,0.802c-0.027,0.049-0.057,0.097-0.084,0.146c-0.181,0.314-0.359,0.634-0.537,0.96
		c-0.036,0.065-0.071,0.132-0.106,0.198c-0.15,0.278-0.301,0.56-0.449,0.846c-0.035,0.068-0.071,0.136-0.106,0.205
		c-0.174,0.339-0.348,0.684-0.519,1.034c-0.029,0.057-0.057,0.116-0.084,0.173c-0.147,0.303-0.294,0.611-0.439,0.923
		c-0.04,0.083-0.079,0.167-0.118,0.251c-0.168,0.366-0.336,0.736-0.501,1.114c-0.016,0.036-0.031,0.073-0.047,0.109
		c-0.151,0.344-0.301,0.695-0.449,1.049c-0.04,0.095-0.079,0.191-0.119,0.288c-0.324,0.784-0.644,1.593-0.956,2.427
		c-0.039,0.103-0.078,0.206-0.115,0.31c-0.14,0.377-0.279,0.76-0.417,1.147c-0.016,0.047-0.033,0.094-0.051,0.141
		c-0.15,0.43-0.3,0.867-0.449,1.31c-0.035,0.107-0.071,0.215-0.106,0.324c-0.126,0.378-0.25,0.761-0.374,1.148
		c-0.025,0.083-0.052,0.164-0.078,0.247c-0.144,0.457-0.285,0.921-0.426,1.39c-0.031,0.105-0.063,0.211-0.094,0.317
		c-0.116,0.394-0.232,0.793-0.347,1.197c-0.03,0.107-0.061,0.214-0.091,0.322c-0.137,0.486-0.271,0.978-0.404,1.478
		c-0.024,0.091-0.048,0.184-0.072,0.275c-0.111,0.425-0.222,0.855-0.332,1.291c-0.032,0.128-0.065,0.257-0.098,0.387
		c-0.128,0.515-0.255,1.037-0.379,1.566c-0.016,0.064-0.029,0.13-0.045,0.194c-0.111,0.476-0.221,0.958-0.329,1.444
		c-0.031,0.142-0.063,0.283-0.094,0.425c-0.242,1.101-0.476,2.229-0.702,3.385c-0.029,0.151-0.059,0.302-0.088,0.454
		c-0.1,0.517-0.197,1.04-0.295,1.568c-0.013,0.073-0.026,0.143-0.039,0.215c-0.107,0.592-0.212,1.193-0.315,1.8
		c-0.026,0.153-0.053,0.308-0.078,0.461c-0.085,0.514-0.17,1.031-0.253,1.554c-0.02,0.121-0.039,0.241-0.059,0.362
		c-0.098,0.622-0.193,1.252-0.286,1.889c-0.022,0.148-0.044,0.298-0.065,0.448c-0.076,0.53-0.151,1.065-0.225,1.605
		c-0.021,0.152-0.042,0.304-0.063,0.458c-0.089,0.656-0.175,1.318-0.259,1.988c-0.017,0.132-0.032,0.265-0.049,0.398
		c-0.069,0.566-0.138,1.137-0.204,1.714c-0.021,0.177-0.042,0.354-0.063,0.532c-0.078,0.692-0.155,1.39-0.229,2.097
		c-0.008,0.088-0.017,0.178-0.026,0.267c-0.065,0.633-0.13,1.274-0.191,1.92c-0.019,0.19-0.036,0.381-0.055,0.574
		c-0.068,0.731-0.135,1.467-0.199,2.213c0,0.004-0.001,0.008-0.002,0.013c-0.063,0.746-0.124,1.502-0.183,2.264
		c-0.016,0.201-0.031,0.404-0.046,0.606c-0.052,0.676-0.102,1.357-0.148,2.047c-0.007,0.104-0.015,0.206-0.021,0.309
		c-0.053,0.777-0.103,1.563-0.15,2.356c-0.012,0.205-0.023,0.412-0.036,0.618c-0.039,0.67-0.076,1.345-0.111,2.027
		c-0.009,0.159-0.018,0.315-0.025,0.474c-0.042,0.813-0.08,1.634-0.116,2.463c-0.009,0.195-0.017,0.392-0.024,0.587
		c-0.029,0.689-0.058,1.385-0.083,2.086c-0.007,0.198-0.015,0.395-0.021,0.594c-0.029,0.851-0.058,1.709-0.082,2.576
		c-0.005,0.171-0.008,0.344-0.013,0.515c-0.021,0.732-0.038,1.469-0.055,2.213c-0.005,0.229-0.01,0.457-0.015,0.686
		c-0.018,0.891-0.034,1.789-0.046,2.697c-0.002,0.118-0.003,0.238-0.004,0.358c-0.011,0.809-0.019,1.625-0.025,2.446
		c-0.001,0.248-0.003,0.497-0.005,0.746c-0.006,0.937-0.01,1.88-0.01,2.835l51.978-41.738c0-21.147,1.714-37.484,4.578-50.026
		c-2.007-1.174-4.269-2.336-6.708-3.319C759.186,242.152,758.207,241.796,757.205,241.477z"/>
	<path opacity="0.1" fill="#542954" enable-background="new    " d="M811.541,203.542l14.046,12.883
		C820.7,211.538,816.023,207.261,811.541,203.542z"/>
	<path opacity="0.05" fill="#542954" enable-background="new    " d="M732.48,245.316c-0.009,0.007-0.017,0.013-0.025,0.02
		C732.464,245.329,732.472,245.323,732.48,245.316z"/>
	<path opacity="0.1" fill="#542954" enable-background="new    " d="M732.48,245.316c-0.009,0.007-0.017,0.013-0.025,0.02
		C732.464,245.329,732.472,245.323,732.48,245.316z"/>
	<path opacity="0.05" fill="#542954" enable-background="new    " d="M712.85,293.942c-0.021,0.152-0.042,0.304-0.063,0.458
		C712.808,294.246,712.829,294.094,712.85,293.942z"/>
	<path opacity="0.1" fill="#542954" enable-background="new    " d="M712.85,293.942c-0.021,0.152-0.042,0.304-0.063,0.458
		C712.808,294.246,712.829,294.094,712.85,293.942z"/>
	<path opacity="0.05" fill="#542954" enable-background="new    " d="M731.823,245.868c-0.04,0.035-0.079,0.069-0.119,0.103
		C731.743,245.937,731.783,245.903,731.823,245.868z"/>
	<path opacity="0.1" fill="#542954" enable-background="new    " d="M731.823,245.868c-0.04,0.035-0.079,0.069-0.119,0.103
		C731.743,245.937,731.783,245.903,731.823,245.868z"/>
	<path opacity="0.05" fill="#542954" enable-background="new    " d="M710.334,331.232c-0.002,0.118-0.002,0.239-0.004,0.357
		C710.332,331.47,710.332,331.35,710.334,331.232z"/>
	<path opacity="0.1" fill="#542954" enable-background="new    " d="M710.334,331.232c-0.002,0.118-0.002,0.239-0.004,0.357
		C710.332,331.47,710.332,331.35,710.334,331.232z"/>
	<path opacity="0.05" fill="#542954" enable-background="new    " d="M714.171,285.607c-0.014,0.073-0.027,0.143-0.04,0.215
		C714.144,285.75,714.157,285.68,714.171,285.607z"/>
	<path opacity="0.1" fill="#542954" enable-background="new    " d="M714.171,285.607c-0.014,0.073-0.027,0.143-0.04,0.215
		C714.144,285.75,714.157,285.68,714.171,285.607z"/>
	<path opacity="0.05" fill="#542954" enable-background="new    " d="M710.463,325.121c-0.006,0.17-0.01,0.343-0.015,0.515
		C710.453,325.465,710.457,325.293,710.463,325.121z"/>
	<path opacity="0.1" fill="#542954" enable-background="new    " d="M710.463,325.121c-0.006,0.17-0.01,0.343-0.015,0.515
		C710.453,325.465,710.457,325.293,710.463,325.121z"/>
	<path opacity="0.05" fill="#542954" enable-background="new    " d="M733.212,244.744c-0.041,0.031-0.083,0.063-0.124,0.094
		C733.129,244.806,733.171,244.775,733.212,244.744z"/>
	<path opacity="0.1" fill="#542954" enable-background="new    " d="M733.212,244.744c-0.041,0.031-0.083,0.063-0.124,0.094
		C733.129,244.806,733.171,244.775,733.212,244.744z"/>
	<path opacity="0.05" fill="#542954" enable-background="new    " d="M729.103,248.541c-0.027,0.029-0.054,0.061-0.081,0.09
		C729.048,248.601,729.075,248.571,729.103,248.541z"/>
	<path opacity="0.1" fill="#542954" enable-background="new    " d="M729.103,248.541c-0.027,0.029-0.054,0.061-0.081,0.09
		C729.048,248.601,729.075,248.571,729.103,248.541z"/>
	<path opacity="0.05" fill="#542954" enable-background="new    " d="M731.148,246.471c-0.026,0.023-0.052,0.047-0.077,0.071
		C731.097,246.517,731.122,246.494,731.148,246.471z"/>
	<path opacity="0.1" fill="#542954" enable-background="new    " d="M731.148,246.471c-0.026,0.023-0.052,0.047-0.077,0.071
		C731.097,246.517,731.122,246.494,731.148,246.471z"/>
	<path opacity="0.05" fill="#542954" enable-background="new    " d="M728.493,249.237c-0.04,0.048-0.082,0.094-0.122,0.142
		C728.411,249.331,728.453,249.284,728.493,249.237z"/>
	<path opacity="0.1" fill="#542954" enable-background="new    " d="M728.493,249.237c-0.04,0.048-0.082,0.094-0.122,0.142
		C728.411,249.331,728.453,249.284,728.493,249.237z"/>
	<path opacity="0.05" fill="#542954" enable-background="new    " d="M710.395,327.849c-0.005,0.228-0.01,0.457-0.015,0.686
		C710.385,328.306,710.39,328.077,710.395,327.849z"/>
	<path opacity="0.1" fill="#542954" enable-background="new    " d="M710.395,327.849c-0.005,0.228-0.01,0.457-0.015,0.686
		C710.385,328.306,710.39,328.077,710.395,327.849z"/>
	<path opacity="0.05" fill="#542954" enable-background="new    " d="M729.814,247.777c-0.036,0.037-0.071,0.073-0.106,0.11
		C729.743,247.85,729.778,247.814,729.814,247.777z"/>
	<path opacity="0.1" fill="#542954" enable-background="new    " d="M729.814,247.777c-0.036,0.037-0.071,0.073-0.106,0.11
		C729.743,247.85,729.778,247.814,729.814,247.777z"/>
	<path opacity="0.05" fill="#542954" enable-background="new    " d="M714.554,283.586c-0.03,0.15-0.06,0.302-0.088,0.454
		C714.494,283.887,714.523,283.736,714.554,283.586z"/>
	<path opacity="0.1" fill="#542954" enable-background="new    " d="M714.554,283.586c-0.03,0.15-0.06,0.302-0.088,0.454
		C714.494,283.887,714.523,283.736,714.554,283.586z"/>
	<path opacity="0.05" fill="#542954" enable-background="new    " d="M737.445,242.153c-0.031,0.015-0.063,0.029-0.094,0.044
		C737.383,242.182,737.414,242.168,737.445,242.153z"/>
	<path opacity="0.1" fill="#542954" enable-background="new    " d="M737.445,242.153c-0.031,0.015-0.063,0.029-0.094,0.044
		C737.383,242.182,737.414,242.168,737.445,242.153z"/>
	<path opacity="0.2" fill="#542954" enable-background="new    " d="M811.541,203.542c-0.016-0.013-0.031-0.026-0.047-0.039
		c-25.996-21.558-45.323-24.164-59.689-15.892c-3.81,2.194-7.268,5.154-10.412,8.726c-32.783,37.253-31.103,141.28-31.103,141.28
		c0-0.955,0.005-1.898,0.01-2.835c0.001-0.25,0.003-0.499,0.005-0.746c0.007-0.822,0.015-1.638,0.025-2.447
		c0.001-0.118,0.002-0.239,0.003-0.357c0.014-0.908,0.029-1.806,0.047-2.697c0.005-0.229,0.01-0.458,0.015-0.686
		c0.016-0.744,0.034-1.481,0.054-2.213c0.005-0.171,0.009-0.344,0.015-0.515c0.024-0.867,0.052-1.725,0.081-2.576
		c0.007-0.199,0.015-0.396,0.021-0.594c0.026-0.701,0.054-1.396,0.082-2.086c0.008-0.196,0.017-0.394,0.025-0.588
		c0.035-0.829,0.074-1.65,0.116-2.463c0.008-0.159,0.017-0.316,0.024-0.474c0.036-0.682,0.073-1.357,0.112-2.027
		c0.012-0.206,0.023-0.413,0.036-0.618c0.048-0.792,0.098-1.579,0.149-2.355c0.008-0.104,0.015-0.206,0.022-0.309
		c0.048-0.689,0.096-1.37,0.148-2.047c0.015-0.203,0.03-0.404,0.046-0.605c0.059-0.761,0.119-1.518,0.184-2.264
		c0-0.004,0-0.008,0-0.013c0.064-0.746,0.132-1.482,0.2-2.213c0.019-0.192,0.036-0.384,0.055-0.574
		c0.063-0.646,0.126-1.286,0.191-1.919c0.009-0.089,0.018-0.179,0.027-0.267c0.074-0.708,0.15-1.405,0.229-2.097
		c0.02-0.178,0.04-0.355,0.061-0.531c0.066-0.576,0.135-1.148,0.205-1.714c0.017-0.133,0.032-0.266,0.049-0.397
		c0.084-0.67,0.17-1.333,0.258-1.988c0.021-0.154,0.042-0.305,0.063-0.458c0.074-0.541,0.149-1.076,0.227-1.605
		c0.021-0.149,0.043-0.299,0.063-0.448c0.095-0.636,0.189-1.267,0.287-1.889c0.02-0.122,0.039-0.241,0.058-0.362
		c0.084-0.523,0.168-1.041,0.254-1.554c0.026-0.153,0.052-0.309,0.078-0.461c0.103-0.607,0.208-1.208,0.315-1.8
		c0.013-0.073,0.026-0.144,0.04-0.216c0.096-0.528,0.194-1.05,0.294-1.568c0.029-0.152,0.059-0.303,0.089-0.454
		c0.225-1.156,0.459-2.285,0.7-3.385c0.031-0.142,0.063-0.283,0.095-0.425c0.107-0.487,0.218-0.969,0.329-1.444
		c0.015-0.065,0.029-0.13,0.045-0.194c0.124-0.53,0.251-1.051,0.38-1.567c0.032-0.129,0.063-0.257,0.097-0.386
		c0.109-0.435,0.22-0.865,0.332-1.29c0.024-0.092,0.048-0.185,0.072-0.276c0.133-0.5,0.268-0.991,0.403-1.478
		c0.031-0.109,0.062-0.215,0.092-0.323c0.114-0.404,0.23-0.803,0.346-1.197c0.031-0.105,0.063-0.211,0.094-0.316
		c0.142-0.47,0.283-0.933,0.427-1.39c0.026-0.083,0.053-0.164,0.079-0.247c0.122-0.387,0.247-0.771,0.372-1.149
		c0.036-0.108,0.072-0.216,0.108-0.323c0.147-0.442,0.298-0.88,0.449-1.31c0.016-0.048,0.033-0.094,0.051-0.142
		c0.137-0.388,0.275-0.77,0.415-1.147c0.039-0.104,0.077-0.207,0.115-0.31c0.313-0.833,0.632-1.643,0.957-2.427
		c0.039-0.097,0.079-0.192,0.119-0.288c0.148-0.354,0.298-0.705,0.448-1.049c0.016-0.036,0.031-0.073,0.047-0.109
		c0.166-0.377,0.333-0.748,0.503-1.113c0.038-0.085,0.078-0.168,0.116-0.252c0.146-0.312,0.292-0.62,0.439-0.923
		c0.028-0.058,0.057-0.116,0.084-0.173c0.172-0.351,0.346-0.695,0.52-1.034c0.035-0.069,0.071-0.137,0.106-0.205
		c0.148-0.286,0.298-0.569,0.448-0.847c0.036-0.065,0.072-0.132,0.107-0.198c0.178-0.326,0.356-0.645,0.537-0.96
		c0.028-0.048,0.057-0.096,0.085-0.146c0.156-0.271,0.314-0.539,0.474-0.802c0.04-0.066,0.08-0.134,0.12-0.2
		c0.185-0.302,0.369-0.6,0.556-0.891c0.015-0.022,0.029-0.043,0.044-0.066c0.173-0.269,0.347-0.532,0.521-0.792
		c0.043-0.063,0.086-0.126,0.128-0.189c0.379-0.557,0.762-1.091,1.148-1.604c0.043-0.057,0.086-0.113,0.129-0.169
		c0.182-0.238,0.364-0.473,0.548-0.702c0.012-0.016,0.024-0.032,0.037-0.048c0.197-0.246,0.396-0.485,0.595-0.722
		c0.04-0.048,0.081-0.094,0.121-0.142c0.177-0.206,0.353-0.408,0.529-0.605c0.027-0.03,0.054-0.061,0.081-0.091
		c0.2-0.223,0.402-0.441,0.605-0.653c0.036-0.037,0.07-0.074,0.106-0.11c0.177-0.184,0.354-0.365,0.533-0.542
		c0.034-0.035,0.069-0.069,0.104-0.104c0.206-0.202,0.412-0.399,0.619-0.591c0.026-0.024,0.052-0.047,0.078-0.071
		c0.185-0.17,0.37-0.336,0.556-0.5c0.04-0.034,0.079-0.069,0.118-0.104c0.211-0.182,0.422-0.36,0.634-0.532
		c0.008-0.007,0.016-0.013,0.023-0.02c0.203-0.164,0.405-0.323,0.608-0.479c0.041-0.031,0.082-0.063,0.123-0.094
		c0.425-0.322,0.852-0.625,1.281-0.911c0.04-0.027,0.081-0.054,0.122-0.081c0.209-0.137,0.418-0.271,0.628-0.4
		c0.005-0.003,0.009-0.006,0.014-0.008c0.22-0.135,0.439-0.264,0.659-0.39c0.037-0.021,0.074-0.042,0.111-0.063
		c0.2-0.112,0.399-0.222,0.599-0.327c0.021-0.012,0.042-0.023,0.063-0.034c0.222-0.116,0.442-0.227,0.664-0.334
		c0.031-0.015,0.063-0.029,0.094-0.044c0.197-0.094,0.396-0.186,0.594-0.274c0.03-0.013,0.062-0.027,0.093-0.041
		c0.223-0.098,0.445-0.191,0.669-0.281c0.021-0.008,0.039-0.015,0.059-0.023c0.205-0.082,0.41-0.16,0.615-0.234
		c0.035-0.013,0.07-0.026,0.106-0.039c0.225-0.081,0.45-0.16,0.677-0.233c5.775-1.874,11.665-1.233,16.948,0.449
		c1.001,0.319,1.979,0.675,2.933,1.058c2.439,0.982,4.702,2.146,6.708,3.319c5.429,3.175,8.967,6.433,8.967,6.433l49.771-35.861
		L811.541,203.542z"/>
	<path opacity="0.05" fill="#542954" enable-background="new    " d="M713.815,287.622c-0.025,0.153-0.052,0.308-0.077,0.461
		C713.764,287.93,713.789,287.776,713.815,287.622z"/>
	<path opacity="0.1" fill="#542954" enable-background="new    " d="M713.815,287.622c-0.025,0.153-0.052,0.308-0.077,0.461
		C713.764,287.93,713.789,287.776,713.815,287.622z"/>
	<path opacity="0.05" fill="#542954" enable-background="new    " d="M713.14,291.889c-0.021,0.148-0.043,0.298-0.064,0.448
		C713.097,292.187,713.118,292.037,713.14,291.889z"/>
	<path opacity="0.1" fill="#542954" enable-background="new    " d="M713.14,291.889c-0.021,0.148-0.043,0.298-0.064,0.448
		C713.097,292.187,713.118,292.037,713.14,291.889z"/>
	<path opacity="0.05" fill="#542954" enable-background="new    " d="M738.131,241.838c-0.031,0.014-0.062,0.028-0.092,0.042
		C738.069,241.865,738.1,241.851,738.131,241.838z"/>
	<path opacity="0.1" fill="#542954" enable-background="new    " d="M738.131,241.838c-0.031,0.014-0.062,0.028-0.092,0.042
		C738.069,241.865,738.1,241.851,738.131,241.838z"/>
	<path opacity="0.05" fill="#542954" enable-background="new    " d="M739.58,241.26c-0.036,0.012-0.071,0.026-0.105,0.038
		C739.509,241.286,739.544,241.273,739.58,241.26z"/>
	<path opacity="0.1" fill="#542954" enable-background="new    " d="M739.58,241.26c-0.036,0.012-0.071,0.026-0.105,0.038
		C739.509,241.286,739.544,241.273,739.58,241.26z"/>
	<path opacity="0.05" fill="#542954" enable-background="new    " d="M710.305,334.036c-0.002,0.248-0.004,0.497-0.005,0.746
		C710.301,334.533,710.303,334.284,710.305,334.036z"/>
	<path opacity="0.1" fill="#542954" enable-background="new    " d="M710.305,334.036c-0.002,0.248-0.004,0.497-0.005,0.746
		C710.301,334.533,710.303,334.284,710.305,334.036z"/>
	<path opacity="0.05" fill="#542954" enable-background="new    " d="M738.859,241.533c-0.021,0.008-0.039,0.015-0.059,0.022
		C738.82,241.548,738.839,241.542,738.859,241.533z"/>
	<path opacity="0.1" fill="#542954" enable-background="new    " d="M738.859,241.533c-0.021,0.008-0.039,0.015-0.059,0.022
		C738.82,241.548,738.839,241.542,738.859,241.533z"/>
	<path opacity="0.05" fill="#542954" enable-background="new    " d="M734.614,243.753c-0.041,0.027-0.081,0.054-0.122,0.081
		C734.533,243.806,734.574,243.78,734.614,243.753z"/>
	<path opacity="0.1" fill="#542954" enable-background="new    " d="M734.614,243.753c-0.041,0.027-0.081,0.054-0.122,0.081
		C734.533,243.806,734.574,243.78,734.614,243.753z"/>
	<path opacity="0.05" fill="#542954" enable-background="new    " d="M735.256,243.344c-0.005,0.003-0.009,0.005-0.014,0.008
		C735.247,243.349,735.251,243.347,735.256,243.344z"/>
	<path opacity="0.1" fill="#542954" enable-background="new    " d="M735.256,243.344c-0.005,0.003-0.009,0.005-0.014,0.008
		C735.247,243.349,735.251,243.347,735.256,243.344z"/>
	<path opacity="0.05" fill="#542954" enable-background="new    " d="M736.688,242.531c-0.021,0.011-0.042,0.022-0.063,0.034
		C736.646,242.553,736.668,242.542,736.688,242.531z"/>
	<path opacity="0.1" fill="#542954" enable-background="new    " d="M736.688,242.531c-0.021,0.011-0.042,0.022-0.063,0.034
		C736.646,242.553,736.668,242.542,736.688,242.531z"/>
	<path opacity="0.05" fill="#542954" enable-background="new    " d="M730.348,247.236c0.035-0.034,0.068-0.069,0.104-0.104
		C730.417,247.167,730.383,247.202,730.348,247.236z"/>
	<path opacity="0.1" fill="#542954" enable-background="new    " d="M730.348,247.236c0.035-0.034,0.068-0.069,0.104-0.104
		C730.417,247.167,730.383,247.202,730.348,247.236z"/>
	<path opacity="0.05" fill="#542954" enable-background="new    " d="M736.026,242.891c-0.037,0.021-0.074,0.042-0.11,0.063
		C735.952,242.933,735.989,242.912,736.026,242.891z"/>
	<path opacity="0.1" fill="#542954" enable-background="new    " d="M736.026,242.891c-0.037,0.021-0.074,0.042-0.11,0.063
		C735.952,242.933,735.989,242.912,736.026,242.891z"/>
	<path opacity="0.05" fill="#542954" enable-background="new    " d="M724.07,255.564c-0.028,0.049-0.057,0.097-0.085,0.146
		C724.014,255.661,724.042,255.614,724.07,255.564z"/>
	<path opacity="0.1" fill="#542954" enable-background="new    " d="M724.07,255.564c-0.028,0.049-0.057,0.097-0.085,0.146
		C724.014,255.661,724.042,255.614,724.07,255.564z"/>
	<path opacity="0.05" fill="#542954" enable-background="new    " d="M719.023,266.744c-0.018,0.048-0.034,0.094-0.051,0.142
		C718.99,266.838,719.006,266.791,719.023,266.744z"/>
	<path opacity="0.1" fill="#542954" enable-background="new    " d="M719.023,266.744c-0.018,0.048-0.034,0.094-0.051,0.142
		C718.99,266.838,719.006,266.791,719.023,266.744z"/>
	<path opacity="0.05" fill="#542954" enable-background="new    " d="M720.63,262.572c-0.04,0.095-0.079,0.191-0.12,0.288
		C720.551,262.763,720.59,262.667,720.63,262.572z"/>
	<path opacity="0.1" fill="#542954" enable-background="new    " d="M720.63,262.572c-0.04,0.095-0.079,0.191-0.12,0.288
		C720.551,262.763,720.59,262.667,720.63,262.572z"/>
	<path opacity="0.05" fill="#542954" enable-background="new    " d="M712.275,298.499c-0.021,0.177-0.041,0.354-0.062,0.532
		C712.234,298.853,712.255,298.676,712.275,298.499z"/>
	<path opacity="0.1" fill="#542954" enable-background="new    " d="M712.275,298.499c-0.021,0.177-0.041,0.354-0.062,0.532
		C712.234,298.853,712.255,298.676,712.275,298.499z"/>
	<path opacity="0.05" fill="#542954" enable-background="new    " d="M711.512,306.102c0,0.004,0,0.008,0,0.013
		C711.512,306.11,711.512,306.106,711.512,306.102z"/>
	<path opacity="0.1" fill="#542954" enable-background="new    " d="M711.512,306.102c0,0.004,0,0.008,0,0.013
		C711.512,306.11,711.512,306.106,711.512,306.102z"/>
	<path opacity="0.05" fill="#542954" enable-background="new    " d="M719.555,265.287c-0.038,0.103-0.077,0.206-0.115,0.31
		C719.478,265.493,719.517,265.39,719.555,265.287z"/>
	<path opacity="0.1" fill="#542954" enable-background="new    " d="M719.555,265.287c-0.038,0.103-0.077,0.206-0.115,0.31
		C719.478,265.493,719.517,265.39,719.555,265.287z"/>
	<path opacity="0.05" fill="#542954" enable-background="new    " d="M711.328,308.378c-0.016,0.201-0.031,0.404-0.046,0.606
		C711.297,308.782,711.313,308.579,711.328,308.378z"/>
	<path opacity="0.1" fill="#542954" enable-background="new    " d="M711.328,308.378c-0.016,0.201-0.031,0.404-0.046,0.606
		C711.297,308.782,711.313,308.579,711.328,308.378z"/>
	<path opacity="0.05" fill="#542954" enable-background="new    " d="M716.199,276.183c-0.032,0.128-0.064,0.257-0.097,0.387
		C716.135,276.441,716.167,276.312,716.199,276.183z"/>
	<path opacity="0.1" fill="#542954" enable-background="new    " d="M716.199,276.183c-0.032,0.128-0.064,0.257-0.097,0.387
		C716.135,276.441,716.167,276.312,716.199,276.183z"/>
	<path opacity="0.05" fill="#542954" enable-background="new    " d="M721.125,261.414c-0.016,0.036-0.031,0.073-0.047,0.109
		C721.094,261.487,721.109,261.45,721.125,261.414z"/>
	<path opacity="0.1" fill="#542954" enable-background="new    " d="M721.125,261.414c-0.016,0.036-0.031,0.073-0.047,0.109
		C721.094,261.487,721.109,261.45,721.125,261.414z"/>
	<path opacity="0.05" fill="#542954" enable-background="new    " d="M716.604,274.617c-0.024,0.091-0.048,0.184-0.072,0.275
		C716.556,274.802,716.579,274.709,716.604,274.617z"/>
	<path opacity="0.1" fill="#542954" enable-background="new    " d="M716.604,274.617c-0.024,0.091-0.048,0.184-0.072,0.275
		C716.556,274.802,716.579,274.709,716.604,274.617z"/>
	<path opacity="0.05" fill="#542954" enable-background="new    " d="M713.484,289.638c-0.02,0.121-0.039,0.241-0.058,0.362
		C713.445,289.879,713.465,289.759,713.484,289.638z"/>
	<path opacity="0.1" fill="#542954" enable-background="new    " d="M713.484,289.638c-0.02,0.121-0.039,0.241-0.058,0.362
		C713.445,289.879,713.465,289.759,713.484,289.638z"/>
	<path opacity="0.05" fill="#542954" enable-background="new    " d="M717.539,271.303c-0.031,0.105-0.063,0.211-0.094,0.317
		C717.477,271.514,717.507,271.408,717.539,271.303z"/>
	<path opacity="0.1" fill="#542954" enable-background="new    " d="M717.539,271.303c-0.031,0.105-0.063,0.211-0.094,0.317
		C717.477,271.514,717.507,271.408,717.539,271.303z"/>
	<path opacity="0.05" fill="#542954" enable-background="new    " d="M711.985,301.128c-0.009,0.088-0.019,0.178-0.027,0.267
		C711.967,301.306,711.977,301.216,711.985,301.128z"/>
	<path opacity="0.1" fill="#542954" enable-background="new    " d="M711.985,301.128c-0.009,0.088-0.019,0.178-0.027,0.267
		C711.967,301.306,711.977,301.216,711.985,301.128z"/>
	<path opacity="0.05" fill="#542954" enable-background="new    " d="M721.745,260.049c-0.04,0.084-0.079,0.167-0.118,0.252
		C721.666,260.216,721.705,260.133,721.745,260.049z"/>
	<path opacity="0.1" fill="#542954" enable-background="new    " d="M721.745,260.049c-0.04,0.084-0.079,0.167-0.118,0.252
		C721.666,260.216,721.705,260.133,721.745,260.049z"/>
	<path opacity="0.05" fill="#542954" enable-background="new    " d="M718.523,268.195c-0.036,0.107-0.071,0.215-0.107,0.324
		C718.452,268.41,718.487,268.302,718.523,268.195z"/>
	<path opacity="0.1" fill="#542954" enable-background="new    " d="M718.523,268.195c-0.036,0.107-0.071,0.215-0.107,0.324
		C718.452,268.41,718.487,268.302,718.523,268.195z"/>
	<path opacity="0.05" fill="#542954" enable-background="new    " d="M711.767,303.315c-0.019,0.191-0.036,0.381-0.055,0.574
		C711.73,303.696,711.748,303.506,711.767,303.315z"/>
	<path opacity="0.1" fill="#542954" enable-background="new    " d="M711.767,303.315c-0.019,0.191-0.036,0.381-0.055,0.574
		C711.73,303.696,711.748,303.506,711.767,303.315z"/>
	<path opacity="0.05" fill="#542954" enable-background="new    " d="M718.043,269.667c-0.025,0.083-0.053,0.164-0.078,0.247
		C717.99,269.831,718.018,269.749,718.043,269.667z"/>
	<path opacity="0.1" fill="#542954" enable-background="new    " d="M718.043,269.667c-0.025,0.083-0.053,0.164-0.078,0.247
		C717.99,269.831,718.018,269.749,718.043,269.667z"/>
	<path opacity="0.05" fill="#542954" enable-background="new    " d="M710.814,316.34c-0.008,0.159-0.018,0.315-0.025,0.474
		C710.797,316.655,710.806,316.499,710.814,316.34z"/>
	<path opacity="0.1" fill="#542954" enable-background="new    " d="M710.814,316.34c-0.008,0.159-0.018,0.315-0.025,0.474
		C710.797,316.655,710.806,316.499,710.814,316.34z"/>
	<path opacity="0.05" fill="#542954" enable-background="new    " d="M725.914,252.624c-0.043,0.063-0.086,0.126-0.129,0.189
		C725.828,252.75,725.871,252.687,725.914,252.624z"/>
	<path opacity="0.1" fill="#542954" enable-background="new    " d="M725.914,252.624c-0.043,0.063-0.086,0.126-0.129,0.189
		C725.828,252.75,725.871,252.687,725.914,252.624z"/>
	<path opacity="0.05" fill="#542954" enable-background="new    " d="M725.264,253.605c-0.014,0.022-0.028,0.044-0.042,0.066
		C725.235,253.649,725.25,253.628,725.264,253.605z"/>
	<path opacity="0.1" fill="#542954" enable-background="new    " d="M725.264,253.605c-0.014,0.022-0.028,0.044-0.042,0.066
		C725.235,253.649,725.25,253.628,725.264,253.605z"/>
	<path opacity="0.05" fill="#542954" enable-background="new    " d="M711.135,311.031c-0.008,0.104-0.015,0.206-0.022,0.309
		C711.12,311.237,711.127,311.135,711.135,311.031z"/>
	<path opacity="0.1" fill="#542954" enable-background="new    " d="M711.135,311.031c-0.008,0.104-0.015,0.206-0.022,0.309
		C711.12,311.237,711.127,311.135,711.135,311.031z"/>
	<path opacity="0.05" fill="#542954" enable-background="new    " d="M724.665,254.562c-0.04,0.066-0.08,0.134-0.121,0.201
		C724.585,254.696,724.625,254.629,724.665,254.562z"/>
	<path opacity="0.1" fill="#542954" enable-background="new    " d="M724.665,254.562c-0.04,0.066-0.08,0.134-0.121,0.201
		C724.585,254.696,724.625,254.629,724.665,254.562z"/>
	<path opacity="0.05" fill="#542954" enable-background="new    " d="M712.529,296.387c-0.017,0.132-0.032,0.265-0.049,0.398
		C712.497,296.653,712.513,296.519,712.529,296.387z"/>
	<path opacity="0.1" fill="#542954" enable-background="new    " d="M712.529,296.387c-0.017,0.132-0.032,0.265-0.049,0.398
		C712.497,296.653,712.513,296.519,712.529,296.387z"/>
	<path opacity="0.05" fill="#542954" enable-background="new    " d="M710.565,321.951c-0.007,0.198-0.015,0.396-0.021,0.594
		C710.551,322.346,710.559,322.149,710.565,321.951z"/>
	<path opacity="0.1" fill="#542954" enable-background="new    " d="M710.565,321.951c-0.007,0.198-0.015,0.396-0.021,0.594
		C710.551,322.346,710.559,322.149,710.565,321.951z"/>
	<path opacity="0.05" fill="#542954" enable-background="new    " d="M727.191,250.85c-0.043,0.056-0.085,0.113-0.128,0.169
		C727.106,250.963,727.148,250.906,727.191,250.85z"/>
	<path opacity="0.1" fill="#542954" enable-background="new    " d="M727.191,250.85c-0.043,0.056-0.085,0.113-0.128,0.169
		C727.106,250.963,727.148,250.906,727.191,250.85z"/>
	<path opacity="0.05" fill="#542954" enable-background="new    " d="M715.348,279.775c-0.031,0.142-0.063,0.283-0.094,0.425
		C715.285,280.058,715.316,279.916,715.348,279.775z"/>
	<path opacity="0.1" fill="#542954" enable-background="new    " d="M715.348,279.775c-0.031,0.142-0.063,0.283-0.094,0.425
		C715.285,280.058,715.316,279.916,715.348,279.775z"/>
	<path opacity="0.05" fill="#542954" enable-background="new    " d="M710.673,319.278c-0.009,0.195-0.017,0.392-0.025,0.588
		C710.656,319.67,710.664,319.472,710.673,319.278z"/>
	<path opacity="0.1" fill="#542954" enable-background="new    " d="M710.673,319.278c-0.009,0.195-0.017,0.392-0.025,0.588
		C710.656,319.67,710.664,319.472,710.673,319.278z"/>
	<path opacity="0.05" fill="#542954" enable-background="new    " d="M727.775,250.1c-0.012,0.016-0.024,0.032-0.037,0.048
		C727.751,250.132,727.764,250.115,727.775,250.1z"/>
	<path opacity="0.1" fill="#542954" enable-background="new    " d="M727.775,250.1c-0.012,0.016-0.024,0.032-0.037,0.048
		C727.751,250.132,727.764,250.115,727.775,250.1z"/>
	<path opacity="0.05" fill="#542954" enable-background="new    " d="M722.268,258.952c-0.028,0.057-0.057,0.116-0.083,0.173
		C722.211,259.068,722.239,259.01,722.268,258.952z"/>
	<path opacity="0.1" fill="#542954" enable-background="new    " d="M722.268,258.952c-0.028,0.057-0.057,0.116-0.083,0.173
		C722.211,259.068,722.239,259.01,722.268,258.952z"/>
	<path opacity="0.05" fill="#542954" enable-background="new    " d="M710.963,313.696c-0.013,0.205-0.025,0.412-0.036,0.618
		C710.938,314.107,710.95,313.901,710.963,313.696z"/>
	<path opacity="0.1" fill="#542954" enable-background="new    " d="M710.963,313.696c-0.013,0.205-0.025,0.412-0.036,0.618
		C710.938,314.107,710.95,313.901,710.963,313.696z"/>
	<path opacity="0.05" fill="#542954" enable-background="new    " d="M722.894,257.714c-0.036,0.068-0.071,0.136-0.106,0.205
		C722.822,257.849,722.857,257.782,722.894,257.714z"/>
	<path opacity="0.1" fill="#542954" enable-background="new    " d="M722.894,257.714c-0.036,0.068-0.071,0.136-0.106,0.205
		C722.822,257.849,722.857,257.782,722.894,257.714z"/>
	<path opacity="0.05" fill="#542954" enable-background="new    " d="M723.448,256.67c-0.035,0.065-0.07,0.133-0.106,0.198
		C723.378,256.802,723.413,256.735,723.448,256.67z"/>
	<path opacity="0.1" fill="#542954" enable-background="new    " d="M723.448,256.67c-0.035,0.065-0.07,0.133-0.106,0.198
		C723.378,256.802,723.413,256.735,723.448,256.67z"/>
	<path opacity="0.05" fill="#542954" enable-background="new    " d="M717.099,272.818c-0.03,0.107-0.061,0.214-0.092,0.322
		C717.037,273.031,717.068,272.925,717.099,272.818z"/>
	<path opacity="0.1" fill="#542954" enable-background="new    " d="M717.099,272.818c-0.03,0.107-0.061,0.214-0.092,0.322
		C717.037,273.031,717.068,272.925,717.099,272.818z"/>
	<path opacity="0.05" fill="#542954" enable-background="new    " d="M715.723,278.136c-0.016,0.064-0.03,0.13-0.045,0.194
		C715.692,278.266,715.707,278.201,715.723,278.136z"/>
	<path opacity="0.1" fill="#542954" enable-background="new    " d="M715.723,278.136c-0.016,0.064-0.03,0.13-0.045,0.194
		C715.692,278.266,715.707,278.201,715.723,278.136z"/>
	<path fill="none" d="M825.587,216.426"/>
</g>
<rect x="582.425" y="69.725" fill="none" width="300" height="300"/>
</svg>
