<?xml version="1.0" encoding="utf-8"?>
<!-- Generator: Adobe Illustrator 15.0.2, SVG Export Plug-In . SVG Version: 6.00 Build 0)  -->
<!DOCTYPE svg PUBLIC "-//W3C//DTD SVG 1.1//EN" "http://www.w3.org/Graphics/SVG/1.1/DTD/svg11.dtd">
<svg version="1.1" id="Calque_1" xmlns="http://www.w3.org/2000/svg" xmlns:xlink="http://www.w3.org/1999/xlink" x="0px" y="0px"
	 width="512.699px" height="677.902px" viewBox="-216.349 -301.784 512.699 677.902"
	 enable-background="new -216.349 -301.784 512.699 677.902" xml:space="preserve">
<path fill="#FFFBFF" d="M296.351,27.678c-14.049-14.049-27.498-26.347-40.382-37.039l-0.111-0.102l-0.023-0.01
	C181.092-71.452,125.523-78.946,84.22-55.163C31.256-282.369-73.095-301.784-73.095-301.784L-216.349-198.81
	c169.344,0,181.211,574.928,181.211,574.928l149.44-120c0-60.8,4.929-107.772,13.162-143.83c15.607,9.13,25.78,18.495,25.78,18.495
	L296.351,27.678z"/>
<path opacity="0.1" fill="#542954" d="M54.283-30.073c9.039-10.271,18.984-18.783,29.937-25.089
	C31.256-282.369-73.095-301.784-73.095-301.784L-216.349-198.81C-216.349-198.81-41.032-207.286,54.283-30.073z"/>
<path fill="none" d="M-5.754,161.182c-0.933,2.256-1.849,4.582-2.749,6.98C-7.604,165.764-6.688,163.438-5.754,161.182z"/>
<path fill="none" d="M-8.833,169.052c-0.402,1.085-0.801,2.183-1.196,3.298C-9.635,171.234-9.236,170.137-8.833,169.052z"/>
<path fill="none" d="M-4.122,157.339c-0.433,0.99-0.862,1.998-1.289,3.017C-4.984,159.337-4.555,158.329-4.122,157.339z"/>
<path fill="none" d="M4.237,140.627c-0.518,0.903-1.032,1.823-1.543,2.759C3.205,142.45,3.719,141.53,4.237,140.627z"/>
<path fill="none" d="M-11.776,177.451c-0.36,1.088-0.718,2.188-1.072,3.303C-12.494,179.64-12.136,178.539-11.776,177.451z"/>
<path fill="none" d="M2.386,143.955c-0.432,0.799-0.862,1.61-1.29,2.433C1.524,145.565,1.954,144.754,2.386,143.955z"/>
<path fill="none" d="M-13.074,181.463c-0.413,1.313-0.821,2.646-1.225,3.995C-13.895,184.108-13.487,182.776-13.074,181.463z"/>
<path fill="none" d="M0.791,146.976c-0.501,0.975-1,1.965-1.493,2.973C-0.208,148.94,0.29,147.95,0.791,146.976z"/>
<path fill="none" d="M-0.943,150.446c-0.424,0.872-0.845,1.757-1.263,2.653C-1.788,152.203-1.367,151.318-0.943,150.446z"/>
<path fill="none" d="M-2.543,153.824c-0.485,1.052-0.967,2.116-1.443,3.201C-3.51,155.94-3.028,154.876-2.543,153.824z"/>
<path fill="none" d="M-10.176,172.757c-0.435,1.235-0.865,2.493-1.292,3.765C-11.041,175.25-10.611,173.992-10.176,172.757z"/>
<path fill="none" d="M-20.866,211.037c-0.694,3.164-1.367,6.408-2.017,9.733C-22.232,217.445-21.56,214.201-20.866,211.037z"/>
<path fill="none" d="M-24.096,227.203c-0.308,1.703-0.61,3.431-0.907,5.175C-24.706,230.634-24.404,228.906-24.096,227.203z"/>
<path fill="none" d="M-23.135,222.076c-0.286,1.487-0.568,2.988-0.846,4.508C-23.704,225.064-23.421,223.563-23.135,222.076z"/>
<path fill="none" d="M-14.567,186.369c-0.335,1.134-0.667,2.281-0.996,3.441C-15.235,188.65-14.903,187.503-14.567,186.369z"/>
<path fill="none" d="M-25.226,233.705c-0.247,1.475-0.491,2.964-0.729,4.468C-25.716,236.669-25.473,235.18-25.226,233.705z"/>
<path fill="none" d="M-19.649,205.662c-0.32,1.367-0.635,2.754-0.946,4.153C-20.284,208.416-19.969,207.029-19.649,205.662z"/>
<path fill="none" d="M-17.195,195.779c-0.322,1.223-0.64,2.46-0.955,3.71C-17.835,198.239-17.517,197.002-17.195,195.779z"/>
<path fill="none" d="M-15.827,190.738c-0.392,1.398-0.778,2.813-1.16,4.249C-16.605,193.552-16.219,192.137-15.827,190.738z"/>
<path fill="none" d="M-18.429,200.601c-0.369,1.483-0.733,2.982-1.092,4.505C-19.162,203.583-18.797,202.084-18.429,200.601z"/>
<path fill="none" d="M20.69,118.136c-0.583,0.612-1.165,1.237-1.743,1.879C19.526,119.373,20.107,118.748,20.69,118.136z"/>
<path fill="none" d="M36.602,105.097c-0.604,0.371-1.206,0.757-1.807,1.152C35.396,105.854,35.999,105.468,36.602,105.097z"/>
<path fill="none" d="M40.578,102.831c-0.575,0.303-1.148,0.617-1.722,0.94C39.43,103.448,40.003,103.134,40.578,102.831z"/>
<path fill="none" d="M38.536,103.952c-0.633,0.362-1.266,0.734-1.896,1.121C37.271,104.686,37.903,104.314,38.536,103.952z"/>
<path fill="none" d="M5.844,137.901c-0.457,0.757-0.911,1.525-1.362,2.307C4.933,139.427,5.387,138.658,5.844,137.901z"/>
<path fill="none" d="M28.59,110.799c-0.609,0.496-1.216,1.009-1.821,1.531C27.375,111.808,27.981,111.295,28.59,110.799z"/>
<path fill="none" d="M34.445,106.48c-1.234,0.82-2.462,1.692-3.684,2.617C31.983,108.173,33.211,107.301,34.445,106.48z"/>
<path fill="none" d="M51.021,98.413L51.021,98.413c-0.65,0.211-1.3,0.436-1.948,0.669C49.721,98.849,50.37,98.624,51.021,98.413z"/>
<path fill="none" d="M42.666,101.775c-0.637,0.308-1.273,0.627-1.908,0.959C41.393,102.402,42.029,102.083,42.666,101.775z"/>
<path fill="none" d="M48.769,99.192c-0.591,0.216-1.181,0.44-1.77,0.675C47.588,99.633,48.178,99.408,48.769,99.192z"/>
<path fill="none" d="M44.643,100.86c-0.57,0.253-1.14,0.516-1.708,0.787C43.503,101.376,44.072,101.113,44.643,100.86z"/>
<path fill="none" d="M30.407,109.367c-0.584,0.448-1.167,0.905-1.748,1.377C29.24,110.272,29.823,109.815,30.407,109.367z"/>
<path fill="none" d="M13.085,127.14c-1.113,1.477-2.214,3.014-3.303,4.613C10.871,130.153,11.972,128.616,13.085,127.14z"/>
<path fill="none" d="M26.429,112.628c-0.535,0.468-1.068,0.945-1.6,1.435C25.361,113.573,25.895,113.096,26.429,112.628z"/>
<path fill="none" d="M15.028,124.634c-0.527,0.659-1.052,1.334-1.574,2.02C13.976,125.968,14.5,125.293,15.028,124.634z"/>
<path fill="none" d="M7.789,134.764c-0.536,0.838-1.068,1.694-1.598,2.563C6.721,136.457,7.253,135.602,7.789,134.764z"/>
<path fill="none" d="M9.413,132.298c-0.502,0.746-1.003,1.503-1.5,2.276C8.41,133.801,8.91,133.044,9.413,132.298z"/>
<path fill="none" d="M16.847,122.423c-0.573,0.678-1.144,1.367-1.711,2.074C15.703,123.79,16.274,123.101,16.847,122.423z"/>
<path fill="none" d="M-26.122,239.214c-0.281,1.788-0.555,3.6-0.824,5.43C-26.677,242.813-26.402,241.002-26.122,239.214z"/>
<path fill="none" d="M24.607,114.266c-0.596,0.553-1.189,1.119-1.78,1.7C23.418,115.385,24.012,114.818,24.607,114.266z"/>
<path fill="none" d="M18.716,120.274c-0.509,0.568-1.016,1.148-1.521,1.739C17.701,121.423,18.208,120.843,18.716,120.274z"/>
<path fill="none" d="M46.832,99.933c-0.643,0.258-1.285,0.528-1.926,0.81C45.547,100.461,46.189,100.19,46.832,99.933z"/>
<path fill="none" d="M-33.31,309.116c-0.112,1.927-0.22,3.869-0.322,5.828C-33.53,312.985-33.422,311.043-33.31,309.116z"/>
<path fill="none" d="M-33.704,316.307c-0.119,2.337-0.23,4.698-0.334,7.082C-33.934,321.005-33.823,318.644-33.704,316.307z"/>
<path fill="none" d="M-29.606,265.178c-0.226,1.99-0.447,3.996-0.66,6.03C-30.053,269.174-29.833,267.168-29.606,265.178z"/>
<path fill="none" d="M-34.109,325.08c-0.084,1.982-0.163,3.982-0.236,5.997C-34.272,329.062-34.193,327.063-34.109,325.08z"/>
<path fill="none" d="M-30.344,271.975c-0.189,1.821-0.372,3.662-0.55,5.52C-30.715,275.637-30.533,273.795-30.344,271.975z"/>
<path fill="none" d="M-31.627,285.544c-0.184,2.145-0.358,4.319-0.527,6.509C-31.985,289.863-31.811,287.688-31.627,285.544z"/>
<path fill="none" d="M-32.288,293.795c-0.147,1.943-0.289,3.903-0.425,5.884C-32.577,297.698-32.435,295.738-32.288,293.795z"/>
<path fill="none" d="M-32.775,300.567c-0.151,2.233-0.294,4.494-0.431,6.772C-33.068,305.062-32.926,302.801-32.775,300.567z"/>
<path fill="none" d="M20.995,117.819c0.509-0.529,1.021-1.049,1.533-1.557C22.016,116.771,21.504,117.29,20.995,117.819z"/>
<path fill="none" d="M-35.138,376.118c0-2.746,0.011-5.457,0.027-8.151C-35.126,370.661-35.138,373.372-35.138,376.118z"/>
<path fill="none" d="M-35.024,358.789c-0.03,2.324-0.053,4.67-0.071,7.033C-35.078,363.459-35.055,361.113-35.024,358.789z"/>
<path fill="none" d="M-34.683,341.671c-0.057,2.104-0.108,4.225-0.155,6.362C-34.791,345.896-34.739,343.774-34.683,341.671z"/>
<path fill="none" d="M-34.879,350.006c-0.051,2.562-0.097,5.142-0.133,7.752C-34.977,355.147-34.931,352.567-34.879,350.006z"/>
<path fill="none" d="M-34.408,332.784c-0.086,2.445-0.165,4.913-0.235,7.406C-34.573,337.697-34.494,335.229-34.408,332.784z"/>
<path fill="none" d="M-31.051,279.145c-0.197,2.102-0.39,4.217-0.574,6.363C-31.44,283.361-31.248,281.246-31.051,279.145z"/>
<path fill="none" d="M-27.96,251.863c-0.253,1.885-0.501,3.789-0.742,5.716C-28.461,255.652-28.214,253.748-27.96,251.863z"/>
<path fill="none" d="M-28.842,258.721c-0.201,1.628-0.397,3.271-0.589,4.929C-29.239,261.992-29.042,260.349-28.842,258.721z"/>
<path fill="none" d="M-27.131,245.931c-0.22,1.524-0.437,3.063-0.649,4.617C-27.568,248.994-27.352,247.455-27.131,245.931z"/>
<path opacity="0.05" fill="#542954" d="M255.857-9.463l-0.023-0.01c0.045,0.037,0.09,0.074,0.135,0.111L255.857-9.463z"/>
<path opacity="0.05" fill="#542954" d="M99.747,99.705c-15.188-4.838-32.125-6.68-48.727-1.292l0,0
	c-0.65,0.211-1.3,0.436-1.948,0.669c-0.102,0.036-0.203,0.074-0.304,0.11c-0.591,0.216-1.181,0.44-1.77,0.675
	c-0.056,0.022-0.111,0.043-0.167,0.065c-0.643,0.258-1.285,0.528-1.926,0.81c-0.088,0.039-0.176,0.079-0.264,0.118
	c-0.57,0.253-1.14,0.516-1.708,0.787c-0.09,0.043-0.179,0.085-0.269,0.128c-0.637,0.308-1.273,0.627-1.908,0.959
	c-0.06,0.031-0.119,0.064-0.18,0.097c-0.575,0.303-1.148,0.617-1.722,0.94c-0.107,0.061-0.214,0.12-0.32,0.181
	c-0.633,0.362-1.266,0.733-1.896,1.121c-0.013,0.008-0.025,0.016-0.038,0.023c-0.604,0.371-1.206,0.757-1.807,1.152
	c-0.117,0.076-0.234,0.153-0.35,0.231c-1.234,0.82-2.462,1.692-3.684,2.617c-0.118,0.089-0.236,0.18-0.354,0.27
	c-0.584,0.448-1.167,0.905-1.748,1.377c-0.023,0.019-0.046,0.036-0.069,0.055c-0.609,0.496-1.216,1.009-1.821,1.531
	c-0.113,0.099-0.227,0.199-0.34,0.298c-0.535,0.468-1.068,0.945-1.6,1.435c-0.074,0.068-0.148,0.135-0.222,0.203
	c-0.596,0.553-1.189,1.119-1.78,1.7c-0.1,0.098-0.199,0.198-0.299,0.297c-0.513,0.508-1.024,1.027-1.533,1.557
	c-0.102,0.105-0.203,0.21-0.305,0.316c-0.583,0.612-1.165,1.237-1.743,1.879c-0.078,0.085-0.154,0.174-0.231,0.26
	c-0.509,0.568-1.016,1.148-1.521,1.739c-0.116,0.137-0.233,0.271-0.349,0.409c-0.573,0.678-1.144,1.367-1.711,2.074
	c-0.036,0.045-0.072,0.092-0.107,0.137c-0.527,0.659-1.052,1.334-1.574,2.02c-0.123,0.161-0.246,0.323-0.369,0.486
	c-1.113,1.477-2.214,3.014-3.303,4.613c-0.123,0.181-0.246,0.362-0.369,0.545c-0.503,0.746-1.003,1.503-1.5,2.276
	c-0.041,0.064-0.083,0.126-0.124,0.189c-0.536,0.838-1.068,1.693-1.598,2.563c-0.116,0.19-0.231,0.384-0.347,0.575
	c-0.457,0.757-0.911,1.525-1.362,2.307c-0.082,0.141-0.163,0.278-0.244,0.419c-0.518,0.903-1.032,1.823-1.543,2.759
	c-0.103,0.188-0.205,0.38-0.308,0.569c-0.432,0.799-0.862,1.61-1.29,2.433c-0.102,0.196-0.204,0.391-0.306,0.588
	c-0.501,0.975-1,1.965-1.493,2.973c-0.081,0.165-0.161,0.333-0.241,0.498c-0.424,0.872-0.845,1.757-1.263,2.653
	c-0.112,0.241-0.225,0.481-0.337,0.725c-0.485,1.052-0.967,2.116-1.443,3.201c-0.045,0.104-0.09,0.21-0.136,0.313
	c-0.433,0.99-0.862,1.998-1.289,3.017c-0.115,0.274-0.229,0.549-0.344,0.826c-0.933,2.256-1.849,4.582-2.749,6.98
	c-0.11,0.295-0.221,0.592-0.331,0.89c-0.402,1.085-0.801,2.183-1.196,3.298c-0.048,0.137-0.098,0.27-0.146,0.407
	c-0.435,1.235-0.865,2.493-1.292,3.765c-0.103,0.309-0.206,0.619-0.309,0.93c-0.36,1.088-0.718,2.188-1.072,3.303
	c-0.075,0.237-0.151,0.471-0.226,0.709c-0.413,1.313-0.821,2.646-1.225,3.995c-0.09,0.302-0.179,0.607-0.269,0.911
	c-0.335,1.134-0.667,2.281-0.996,3.441c-0.088,0.31-0.176,0.616-0.264,0.928c-0.392,1.398-0.778,2.813-1.16,4.249
	c-0.07,0.262-0.138,0.528-0.208,0.792c-0.322,1.223-0.64,2.46-0.955,3.71c-0.093,0.37-0.187,0.739-0.279,1.111
	c-0.369,1.483-0.733,2.982-1.092,4.505c-0.043,0.185-0.085,0.372-0.128,0.557c-0.32,1.367-0.635,2.754-0.946,4.153
	c-0.091,0.406-0.181,0.813-0.271,1.222c-0.694,3.164-1.366,6.408-2.017,9.733c-0.084,0.434-0.169,0.869-0.253,1.306
	c-0.286,1.487-0.568,2.988-0.846,4.508c-0.038,0.208-0.077,0.411-0.115,0.619c-0.308,1.703-0.61,3.431-0.907,5.175
	c-0.075,0.44-0.149,0.885-0.223,1.327c-0.247,1.475-0.49,2.964-0.729,4.468c-0.055,0.348-0.112,0.691-0.167,1.041
	c-0.281,1.788-0.555,3.6-0.824,5.43c-0.063,0.427-0.124,0.858-0.186,1.287c-0.22,1.524-0.437,3.063-0.649,4.617
	c-0.06,0.438-0.121,0.874-0.18,1.315c-0.253,1.885-0.501,3.789-0.742,5.716c-0.047,0.378-0.093,0.762-0.14,1.142
	c-0.201,1.628-0.397,3.271-0.589,4.929c-0.059,0.509-0.118,1.017-0.176,1.528c-0.226,1.99-0.447,3.996-0.66,6.03
	c-0.026,0.253-0.051,0.512-0.078,0.767c-0.189,1.82-0.372,3.662-0.55,5.52c-0.053,0.549-0.105,1.098-0.157,1.65
	c-0.197,2.102-0.39,4.217-0.574,6.363c-0.001,0.012-0.002,0.024-0.003,0.036c-0.184,2.145-0.358,4.319-0.527,6.509
	c-0.045,0.579-0.089,1.16-0.133,1.742c-0.147,1.943-0.289,3.903-0.425,5.884c-0.021,0.298-0.042,0.591-0.063,0.889
	c-0.151,2.233-0.293,4.494-0.431,6.772c-0.035,0.59-0.069,1.184-0.104,1.776c-0.112,1.927-0.22,3.869-0.322,5.828
	c-0.023,0.455-0.049,0.905-0.072,1.362c-0.119,2.337-0.23,4.698-0.334,7.082c-0.024,0.561-0.047,1.128-0.071,1.691
	c-0.084,1.982-0.163,3.981-0.236,5.997c-0.021,0.569-0.042,1.135-0.063,1.707c-0.085,2.445-0.165,4.913-0.235,7.406
	c-0.014,0.491-0.025,0.988-0.039,1.48c-0.057,2.104-0.108,4.225-0.155,6.362c-0.014,0.657-0.029,1.313-0.042,1.973
	c-0.051,2.562-0.097,5.142-0.133,7.752c-0.005,0.342-0.008,0.688-0.012,1.031c-0.03,2.324-0.053,4.67-0.071,7.033
	c-0.005,0.713-0.011,1.428-0.015,2.145c-0.016,2.694-0.027,5.405-0.027,8.151l149.44-120c0-60.8,4.929-107.772,13.162-143.83
	c-5.768-3.374-12.271-6.717-19.287-9.542C105.44,101.644,102.625,100.621,99.747,99.705z"/>
<path opacity="0.1" fill="#542954" d="M255.969-9.361l40.382,37.039C282.302,13.629,268.853,1.331,255.969-9.361z"/>
<path opacity="0.05" fill="#542954" d="M28.659,110.744c-0.023,0.019-0.046,0.036-0.069,0.055
	C28.613,110.78,28.636,110.763,28.659,110.744z"/>
<path opacity="0.1" fill="#542954" d="M28.659,110.744c-0.023,0.019-0.046,0.036-0.069,0.055
	C28.613,110.78,28.636,110.763,28.659,110.744z"/>
<path opacity="0.05" fill="#542954" d="M-27.78,250.548c-0.06,0.438-0.121,0.874-0.18,1.315
	C-27.901,251.422-27.84,250.986-27.78,250.548z"/>
<path opacity="0.1" fill="#542954" d="M-27.78,250.548c-0.06,0.438-0.121,0.874-0.18,1.315
	C-27.901,251.422-27.84,250.986-27.78,250.548z"/>
<path opacity="0.05" fill="#542954" d="M26.77,112.33c-0.113,0.099-0.227,0.199-0.34,0.298
	C26.542,112.529,26.656,112.429,26.77,112.33z"/>
<path opacity="0.1" fill="#542954" d="M26.77,112.33c-0.113,0.099-0.227,0.199-0.34,0.298
	C26.542,112.529,26.656,112.429,26.77,112.33z"/>
<path opacity="0.05" fill="#542954" d="M-35.012,357.758c-0.005,0.342-0.008,0.689-0.012,1.031
	C-35.02,358.446-35.017,358.1-35.012,357.758z"/>
<path opacity="0.1" fill="#542954" d="M-35.012,357.758c-0.005,0.342-0.008,0.689-0.012,1.031
	C-35.02,358.446-35.017,358.1-35.012,357.758z"/>
<path opacity="0.05" fill="#542954" d="M-23.981,226.584c-0.038,0.208-0.077,0.411-0.115,0.619
	C-24.058,226.995-24.019,226.792-23.981,226.584z"/>
<path opacity="0.1" fill="#542954" d="M-23.981,226.584c-0.038,0.208-0.077,0.411-0.115,0.619
	C-24.058,226.995-24.019,226.792-23.981,226.584z"/>
<path opacity="0.05" fill="#542954" d="M-34.644,340.19c-0.014,0.491-0.025,0.988-0.039,1.48
	C-34.669,341.179-34.657,340.682-34.644,340.19z"/>
<path opacity="0.1" fill="#542954" d="M-34.644,340.19c-0.014,0.491-0.025,0.988-0.039,1.48
	C-34.669,341.179-34.657,340.682-34.644,340.19z"/>
<path opacity="0.05" fill="#542954" d="M30.762,109.098c-0.118,0.089-0.236,0.18-0.354,0.27
	C30.525,109.277,30.644,109.187,30.762,109.098z"/>
<path opacity="0.1" fill="#542954" d="M30.762,109.098c-0.118,0.089-0.236,0.18-0.354,0.27
	C30.525,109.277,30.644,109.187,30.762,109.098z"/>
<path opacity="0.05" fill="#542954" d="M18.948,120.015c-0.078,0.085-0.154,0.174-0.231,0.26
	C18.793,120.188,18.87,120.1,18.948,120.015z"/>
<path opacity="0.1" fill="#542954" d="M18.948,120.015c-0.078,0.085-0.154,0.174-0.231,0.26
	C18.793,120.188,18.87,120.1,18.948,120.015z"/>
<path opacity="0.05" fill="#542954" d="M24.83,114.063c-0.074,0.068-0.148,0.135-0.222,0.203
	C24.681,114.197,24.756,114.131,24.83,114.063z"/>
<path opacity="0.1" fill="#542954" d="M24.83,114.063c-0.074,0.068-0.148,0.135-0.222,0.203
	C24.681,114.197,24.756,114.131,24.83,114.063z"/>
<path opacity="0.05" fill="#542954" d="M17.196,122.014c-0.116,0.137-0.233,0.271-0.349,0.409
	C16.963,122.285,17.08,122.15,17.196,122.014z"/>
<path opacity="0.1" fill="#542954" d="M17.196,122.014c-0.116,0.137-0.233,0.271-0.349,0.409
	C16.963,122.285,17.08,122.15,17.196,122.014z"/>
<path opacity="0.05" fill="#542954" d="M-34.837,348.033c-0.014,0.657-0.029,1.313-0.042,1.973
	C-34.866,349.346-34.852,348.69-34.837,348.033z"/>
<path opacity="0.1" fill="#542954" d="M-34.837,348.033c-0.014,0.657-0.029,1.313-0.042,1.973
	C-34.866,349.346-34.852,348.69-34.837,348.033z"/>
<path opacity="0.05" fill="#542954" d="M20.995,117.819c-0.102,0.105-0.203,0.21-0.305,0.316
	C20.792,118.029,20.894,117.925,20.995,117.819z"/>
<path opacity="0.1" fill="#542954" d="M20.995,117.819c-0.102,0.105-0.203,0.21-0.305,0.316
	C20.792,118.029,20.894,117.925,20.995,117.819z"/>
<path opacity="0.05" fill="#542954" d="M-22.882,220.771c-0.084,0.434-0.169,0.869-0.253,1.306
	C-23.051,221.64-22.967,221.204-22.882,220.771z"/>
<path opacity="0.1" fill="#542954" d="M-22.882,220.771c-0.084,0.434-0.169,0.869-0.253,1.306
	C-23.051,221.64-22.967,221.204-22.882,220.771z"/>
<path opacity="0.05" fill="#542954" d="M42.935,101.647c-0.09,0.043-0.179,0.084-0.269,0.128
	C42.756,101.732,42.845,101.69,42.935,101.647z"/>
<path opacity="0.1" fill="#542954" d="M42.935,101.647c-0.09,0.043-0.179,0.084-0.269,0.128
	C42.756,101.732,42.845,101.69,42.935,101.647z"/>
<path opacity="0.2" fill="#542954" d="M255.969-9.361c-0.045-0.037-0.09-0.074-0.135-0.111
	C181.092-71.452,125.523-78.946,84.22-55.163c-10.952,6.307-20.897,14.819-29.937,25.089
	C-39.969,77.03-35.138,376.118-35.138,376.118c0-2.746,0.011-5.457,0.027-8.151c0.004-0.717,0.009-1.432,0.015-2.145
	c0.018-2.363,0.041-4.709,0.071-7.033c0.004-0.342,0.007-0.689,0.012-1.031c0.036-2.61,0.082-5.19,0.133-7.752
	c0.013-0.66,0.028-1.315,0.042-1.973c0.046-2.138,0.098-4.259,0.155-6.362c0.014-0.492,0.025-0.989,0.039-1.48
	c0.071-2.493,0.149-4.961,0.235-7.406c0.02-0.572,0.042-1.138,0.063-1.707c0.074-2.015,0.152-4.015,0.236-5.997
	c0.023-0.563,0.046-1.131,0.071-1.691c0.104-2.384,0.215-4.745,0.334-7.082c0.023-0.457,0.048-0.907,0.072-1.362
	c0.103-1.959,0.21-3.901,0.322-5.828c0.035-0.593,0.069-1.187,0.104-1.776c0.137-2.278,0.28-4.539,0.431-6.772
	c0.02-0.298,0.042-0.591,0.063-0.889c0.136-1.98,0.278-3.94,0.425-5.884c0.044-0.582,0.088-1.163,0.133-1.742
	c0.169-2.189,0.344-4.364,0.527-6.509c0.001-0.012,0.002-0.024,0.003-0.036c0.184-2.146,0.377-4.262,0.574-6.363
	c0.052-0.553,0.104-1.102,0.157-1.65c0.178-1.857,0.361-3.698,0.55-5.52c0.026-0.255,0.051-0.514,0.078-0.767
	c0.213-2.034,0.434-4.04,0.66-6.03c0.058-0.512,0.117-1.02,0.176-1.528c0.192-1.657,0.388-3.301,0.589-4.929
	c0.047-0.38,0.092-0.764,0.14-1.142c0.241-1.927,0.488-3.831,0.742-5.716c0.06-0.441,0.12-0.877,0.18-1.315
	c0.212-1.554,0.429-3.093,0.649-4.617c0.062-0.429,0.124-0.86,0.186-1.287c0.269-1.83,0.543-3.642,0.824-5.43
	c0.055-0.35,0.111-0.693,0.167-1.041c0.239-1.504,0.482-2.993,0.729-4.468c0.074-0.442,0.148-0.887,0.223-1.327
	c0.297-1.744,0.599-3.472,0.907-5.175c0.038-0.208,0.077-0.411,0.115-0.619c0.277-1.52,0.56-3.021,0.846-4.508
	c0.084-0.437,0.168-0.872,0.253-1.306c0.65-3.325,1.322-6.569,2.017-9.733c0.089-0.408,0.18-0.815,0.271-1.222
	c0.311-1.399,0.626-2.786,0.946-4.153c0.043-0.185,0.085-0.372,0.128-0.557c0.358-1.522,0.723-3.021,1.092-4.505
	c0.092-0.372,0.186-0.741,0.279-1.111c0.314-1.25,0.633-2.487,0.955-3.71c0.069-0.264,0.138-0.53,0.208-0.792
	c0.382-1.436,0.769-2.851,1.16-4.249c0.087-0.312,0.176-0.618,0.264-0.928c0.329-1.16,0.661-2.308,0.996-3.441
	c0.09-0.304,0.179-0.609,0.269-0.911c0.403-1.35,0.812-2.682,1.225-3.995c0.075-0.238,0.151-0.472,0.226-0.709
	c0.354-1.114,0.711-2.215,1.072-3.303c0.103-0.311,0.206-0.621,0.309-0.93c0.426-1.271,0.856-2.529,1.292-3.765
	c0.048-0.138,0.098-0.271,0.146-0.407c0.395-1.115,0.794-2.213,1.196-3.298c0.11-0.298,0.22-0.595,0.331-0.89
	c0.899-2.398,1.815-4.725,2.749-6.98c0.114-0.277,0.229-0.552,0.344-0.826c0.426-1.019,0.855-2.026,1.289-3.017
	c0.045-0.104,0.09-0.21,0.136-0.313c0.477-1.085,0.958-2.149,1.443-3.201c0.112-0.243,0.225-0.483,0.337-0.725
	c0.418-0.896,0.839-1.781,1.263-2.653c0.08-0.165,0.16-0.333,0.241-0.498c0.494-1.008,0.992-1.998,1.493-2.973
	c0.102-0.197,0.204-0.392,0.306-0.588c0.427-0.822,0.857-1.634,1.29-2.433c0.103-0.189,0.205-0.381,0.308-0.569
	c0.511-0.936,1.025-1.855,1.543-2.759c0.081-0.141,0.163-0.278,0.244-0.419c0.451-0.781,0.906-1.55,1.362-2.307
	c0.116-0.191,0.231-0.385,0.347-0.575c0.53-0.868,1.062-1.725,1.598-2.563c0.041-0.063,0.083-0.125,0.124-0.189
	c0.498-0.773,0.998-1.53,1.5-2.276c0.123-0.183,0.246-0.364,0.369-0.545c1.089-1.6,2.19-3.137,3.303-4.613
	c0.123-0.163,0.246-0.325,0.369-0.486c0.522-0.686,1.047-1.36,1.574-2.02c0.036-0.045,0.071-0.092,0.107-0.137
	c0.568-0.707,1.139-1.396,1.711-2.074c0.116-0.138,0.233-0.272,0.349-0.409c0.505-0.591,1.012-1.171,1.521-1.739
	c0.077-0.086,0.154-0.175,0.231-0.26c0.578-0.642,1.159-1.267,1.743-1.879c0.102-0.106,0.203-0.211,0.305-0.316
	c0.509-0.529,1.021-1.049,1.533-1.557c0.1-0.099,0.199-0.199,0.299-0.297c0.591-0.581,1.184-1.147,1.78-1.7
	c0.074-0.068,0.148-0.135,0.222-0.203c0.532-0.489,1.065-0.967,1.6-1.435c0.113-0.099,0.227-0.199,0.34-0.298
	c0.605-0.522,1.212-1.035,1.821-1.531c0.023-0.019,0.046-0.036,0.069-0.055c0.581-0.472,1.164-0.929,1.748-1.377
	c0.118-0.09,0.236-0.181,0.354-0.27c1.221-0.925,2.449-1.797,3.684-2.617c0.116-0.078,0.233-0.155,0.35-0.231
	c0.601-0.396,1.203-0.781,1.807-1.152c0.013-0.008,0.025-0.016,0.038-0.023c0.631-0.387,1.263-0.759,1.896-1.121
	c0.106-0.061,0.213-0.12,0.32-0.181c0.573-0.323,1.147-0.638,1.722-0.94c0.061-0.032,0.12-0.065,0.18-0.097
	c0.635-0.332,1.271-0.651,1.908-0.959c0.09-0.044,0.179-0.085,0.269-0.128c0.568-0.271,1.138-0.534,1.708-0.787
	c0.088-0.039,0.176-0.079,0.264-0.118c0.641-0.281,1.283-0.552,1.926-0.81c0.056-0.022,0.111-0.043,0.167-0.065
	c0.589-0.234,1.179-0.459,1.77-0.675c0.101-0.036,0.202-0.074,0.304-0.11c0.648-0.233,1.298-0.458,1.948-0.669
	c16.602-5.388,33.538-3.546,48.727,1.292c2.878,0.916,5.693,1.938,8.431,3.041c7.016,2.825,13.52,6.168,19.287,9.542
	c15.607,9.13,25.78,18.495,25.78,18.495L296.351,27.678L255.969-9.361z"/>
<path opacity="0.05" fill="#542954" d="M-25.002,232.378c-0.075,0.44-0.149,0.885-0.223,1.327
	C-25.151,233.263-25.078,232.818-25.002,232.378z"/>
<path opacity="0.1" fill="#542954" d="M-25.002,232.378c-0.075,0.44-0.149,0.885-0.223,1.327
	C-25.151,233.263-25.078,232.818-25.002,232.378z"/>
<path opacity="0.05" fill="#542954" d="M-26.945,244.644c-0.063,0.427-0.124,0.858-0.186,1.287
	C-27.069,245.502-27.008,245.07-26.945,244.644z"/>
<path opacity="0.1" fill="#542954" d="M-26.945,244.644c-0.063,0.427-0.124,0.858-0.186,1.287
	C-27.069,245.502-27.008,245.07-26.945,244.644z"/>
<path opacity="0.05" fill="#542954" d="M44.906,100.742c-0.088,0.039-0.176,0.079-0.264,0.118
	C44.73,100.821,44.818,100.781,44.906,100.742z"/>
<path opacity="0.1" fill="#542954" d="M44.906,100.742c-0.088,0.039-0.176,0.079-0.264,0.118
	C44.73,100.821,44.818,100.781,44.906,100.742z"/>
<path opacity="0.05" fill="#542954" d="M49.072,99.082c-0.102,0.036-0.203,0.074-0.304,0.11
	C48.869,99.156,48.971,99.118,49.072,99.082z"/>
<path opacity="0.1" fill="#542954" d="M49.072,99.082c-0.102,0.036-0.203,0.074-0.304,0.11
	C48.869,99.156,48.971,99.118,49.072,99.082z"/>
<path opacity="0.05" fill="#542954" d="M-35.096,365.822c-0.005,0.713-0.011,1.428-0.015,2.145
	C-35.106,367.25-35.101,366.535-35.096,365.822z"/>
<path opacity="0.1" fill="#542954" d="M-35.096,365.822c-0.005,0.713-0.011,1.428-0.015,2.145
	C-35.106,367.25-35.101,366.535-35.096,365.822z"/>
<path opacity="0.05" fill="#542954" d="M46.999,99.867c-0.056,0.022-0.111,0.043-0.167,0.065
	C46.888,99.91,46.943,99.89,46.999,99.867z"/>
<path opacity="0.1" fill="#542954" d="M46.999,99.867c-0.056,0.022-0.111,0.043-0.167,0.065
	C46.888,99.91,46.943,99.89,46.999,99.867z"/>
<path opacity="0.05" fill="#542954" d="M34.795,106.249c-0.117,0.076-0.234,0.153-0.35,0.231
	C34.562,106.402,34.679,106.325,34.795,106.249z"/>
<path opacity="0.1" fill="#542954" d="M34.795,106.249c-0.117,0.076-0.234,0.153-0.35,0.231
	C34.562,106.402,34.679,106.325,34.795,106.249z"/>
<path opacity="0.05" fill="#542954" d="M36.64,105.073c-0.013,0.008-0.025,0.016-0.038,0.023
	C36.615,105.089,36.627,105.081,36.64,105.073z"/>
<path opacity="0.1" fill="#542954" d="M36.64,105.073c-0.013,0.008-0.025,0.016-0.038,0.023
	C36.615,105.089,36.627,105.081,36.64,105.073z"/>
<path opacity="0.05" fill="#542954" d="M40.758,102.734c-0.06,0.031-0.119,0.064-0.18,0.097
	C40.639,102.799,40.698,102.766,40.758,102.734z"/>
<path opacity="0.1" fill="#542954" d="M40.758,102.734c-0.06,0.031-0.119,0.064-0.18,0.097
	C40.639,102.799,40.698,102.766,40.758,102.734z"/>
<path opacity="0.05" fill="#542954" d="M22.528,116.263c0.1-0.099,0.199-0.199,0.299-0.297
	C22.728,116.063,22.628,116.164,22.528,116.263z"/>
<path opacity="0.1" fill="#542954" d="M22.528,116.263c0.1-0.099,0.199-0.199,0.299-0.297
	C22.728,116.063,22.628,116.164,22.528,116.263z"/>
<path opacity="0.05" fill="#542954" d="M38.856,103.771c-0.107,0.061-0.214,0.12-0.32,0.181
	C38.643,103.892,38.75,103.832,38.856,103.771z"/>
<path opacity="0.1" fill="#542954" d="M38.856,103.771c-0.107,0.061-0.214,0.12-0.32,0.181
	C38.643,103.892,38.75,103.832,38.856,103.771z"/>
<path opacity="0.05" fill="#542954" d="M4.481,140.208c-0.082,0.141-0.163,0.278-0.244,0.419
	C4.318,140.486,4.4,140.349,4.481,140.208z"/>
<path opacity="0.1" fill="#542954" d="M4.481,140.208c-0.082,0.141-0.163,0.278-0.244,0.419
	C4.318,140.486,4.4,140.349,4.481,140.208z"/>
<path opacity="0.05" fill="#542954" d="M-10.03,172.35c-0.048,0.137-0.098,0.27-0.146,0.407
	C-10.127,172.619-10.078,172.486-10.03,172.35z"/>
<path opacity="0.1" fill="#542954" d="M-10.03,172.35c-0.048,0.137-0.098,0.27-0.146,0.407
	C-10.127,172.619-10.078,172.486-10.03,172.35z"/>
<path opacity="0.05" fill="#542954" d="M-5.411,160.355c-0.115,0.274-0.229,0.549-0.344,0.826
	C-5.64,160.904-5.525,160.63-5.411,160.355z"/>
<path opacity="0.1" fill="#542954" d="M-5.411,160.355c-0.115,0.274-0.229,0.549-0.344,0.826
	C-5.64,160.904-5.525,160.63-5.411,160.355z"/>
<path opacity="0.05" fill="#542954" d="M-29.431,263.649c-0.059,0.509-0.118,1.017-0.176,1.528
	C-29.549,264.666-29.489,264.158-29.431,263.649z"/>
<path opacity="0.1" fill="#542954" d="M-29.431,263.649c-0.059,0.509-0.118,1.017-0.176,1.528
	C-29.549,264.666-29.489,264.158-29.431,263.649z"/>
<path opacity="0.05" fill="#542954" d="M-31.625,285.508c-0.001,0.012-0.002,0.024-0.003,0.036
	C-31.626,285.532-31.625,285.52-31.625,285.508z"/>
<path opacity="0.1" fill="#542954" d="M-31.625,285.508c-0.001,0.012-0.002,0.024-0.003,0.036
	C-31.626,285.532-31.625,285.52-31.625,285.508z"/>
<path opacity="0.05" fill="#542954" d="M-8.503,168.162c-0.11,0.295-0.221,0.592-0.331,0.89
	C-8.724,168.754-8.613,168.457-8.503,168.162z"/>
<path opacity="0.1" fill="#542954" d="M-8.503,168.162c-0.11,0.295-0.221,0.592-0.331,0.89
	C-8.724,168.754-8.613,168.457-8.503,168.162z"/>
<path opacity="0.05" fill="#542954" d="M-32.155,292.053c-0.045,0.579-0.089,1.16-0.133,1.742
	C-32.244,293.213-32.2,292.632-32.155,292.053z"/>
<path opacity="0.1" fill="#542954" d="M-32.155,292.053c-0.045,0.579-0.089,1.16-0.133,1.742
	C-32.244,293.213-32.2,292.632-32.155,292.053z"/>
<path opacity="0.05" fill="#542954" d="M-18.149,199.489c-0.093,0.37-0.187,0.739-0.279,1.111
	C-18.336,200.229-18.243,199.859-18.149,199.489z"/>
<path opacity="0.1" fill="#542954" d="M-18.149,199.489c-0.093,0.37-0.187,0.739-0.279,1.111
	C-18.336,200.229-18.243,199.859-18.149,199.489z"/>
<path opacity="0.05" fill="#542954" d="M-3.986,157.025c-0.045,0.104-0.09,0.21-0.136,0.313
	C-4.077,157.235-4.032,157.129-3.986,157.025z"/>
<path opacity="0.1" fill="#542954" d="M-3.986,157.025c-0.045,0.104-0.09,0.21-0.136,0.313
	C-4.077,157.235-4.032,157.129-3.986,157.025z"/>
<path opacity="0.05" fill="#542954" d="M-16.987,194.987c-0.07,0.262-0.138,0.528-0.208,0.792
	C-17.125,195.516-17.057,195.249-16.987,194.987z"/>
<path opacity="0.1" fill="#542954" d="M-16.987,194.987c-0.07,0.262-0.138,0.528-0.208,0.792
	C-17.125,195.516-17.057,195.249-16.987,194.987z"/>
<path opacity="0.05" fill="#542954" d="M-25.955,238.173c-0.055,0.348-0.112,0.691-0.167,1.041
	C-26.067,238.864-26.01,238.521-25.955,238.173z"/>
<path opacity="0.1" fill="#542954" d="M-25.955,238.173c-0.055,0.348-0.112,0.691-0.167,1.041
	C-26.067,238.864-26.01,238.521-25.955,238.173z"/>
<path opacity="0.05" fill="#542954" d="M-14.298,185.458c-0.09,0.302-0.179,0.607-0.269,0.911
	C-14.478,186.065-14.389,185.76-14.298,185.458z"/>
<path opacity="0.1" fill="#542954" d="M-14.298,185.458c-0.09,0.302-0.179,0.607-0.269,0.911
	C-14.478,186.065-14.389,185.76-14.298,185.458z"/>
<path opacity="0.05" fill="#542954" d="M-30.266,271.208c-0.026,0.253-0.051,0.512-0.078,0.767
	C-30.317,271.72-30.292,271.461-30.266,271.208z"/>
<path opacity="0.1" fill="#542954" d="M-30.266,271.208c-0.026,0.253-0.051,0.512-0.078,0.767
	C-30.317,271.72-30.292,271.461-30.266,271.208z"/>
<path opacity="0.05" fill="#542954" d="M-2.206,153.1c-0.113,0.241-0.225,0.481-0.337,0.725
	C-2.431,153.581-2.318,153.341-2.206,153.1z"/>
<path opacity="0.1" fill="#542954" d="M-2.206,153.1c-0.113,0.241-0.225,0.481-0.337,0.725
	C-2.431,153.581-2.318,153.341-2.206,153.1z"/>
<path opacity="0.05" fill="#542954" d="M-11.467,176.521c-0.103,0.309-0.206,0.619-0.309,0.93
	C-11.673,177.141-11.57,176.83-11.467,176.521z"/>
<path opacity="0.1" fill="#542954" d="M-11.467,176.521c-0.103,0.309-0.206,0.619-0.309,0.93
	C-11.673,177.141-11.57,176.83-11.467,176.521z"/>
<path opacity="0.05" fill="#542954" d="M-30.894,277.494c-0.053,0.549-0.105,1.098-0.157,1.65
	C-30.999,278.592-30.946,278.043-30.894,277.494z"/>
<path opacity="0.1" fill="#542954" d="M-30.894,277.494c-0.053,0.549-0.105,1.098-0.157,1.65
	C-30.999,278.592-30.946,278.043-30.894,277.494z"/>
<path opacity="0.05" fill="#542954" d="M-12.848,180.754c-0.075,0.237-0.151,0.471-0.226,0.709
	C-12.999,181.225-12.923,180.991-12.848,180.754z"/>
<path opacity="0.1" fill="#542954" d="M-12.848,180.754c-0.075,0.237-0.151,0.471-0.226,0.709
	C-12.999,181.225-12.923,180.991-12.848,180.754z"/>
<path opacity="0.05" fill="#542954" d="M-33.632,314.944c-0.023,0.455-0.049,0.905-0.072,1.362
	C-33.681,315.85-33.656,315.399-33.632,314.944z"/>
<path opacity="0.1" fill="#542954" d="M-33.632,314.944c-0.023,0.455-0.049,0.905-0.072,1.362
	C-33.681,315.85-33.656,315.399-33.632,314.944z"/>
<path opacity="0.05" fill="#542954" d="M9.782,131.753c-0.123,0.181-0.246,0.362-0.369,0.545
	C9.536,132.115,9.659,131.934,9.782,131.753z"/>
<path opacity="0.1" fill="#542954" d="M9.782,131.753c-0.123,0.181-0.246,0.362-0.369,0.545
	C9.536,132.115,9.659,131.934,9.782,131.753z"/>
<path opacity="0.05" fill="#542954" d="M7.913,134.574c-0.041,0.064-0.083,0.126-0.124,0.189
	C7.83,134.7,7.872,134.639,7.913,134.574z"/>
<path opacity="0.1" fill="#542954" d="M7.913,134.574c-0.041,0.064-0.083,0.126-0.124,0.189C7.83,134.7,7.872,134.639,7.913,134.574
	z"/>
<path opacity="0.05" fill="#542954" d="M-32.712,299.679c-0.021,0.298-0.042,0.591-0.063,0.889
	C-32.755,300.27-32.733,299.977-32.712,299.679z"/>
<path opacity="0.1" fill="#542954" d="M-32.712,299.679c-0.021,0.298-0.042,0.591-0.063,0.889
	C-32.755,300.27-32.733,299.977-32.712,299.679z"/>
<path opacity="0.05" fill="#542954" d="M6.191,137.326c-0.116,0.19-0.231,0.384-0.347,0.575
	C5.959,137.71,6.075,137.517,6.191,137.326z"/>
<path opacity="0.1" fill="#542954" d="M6.191,137.326c-0.116,0.19-0.231,0.384-0.347,0.575
	C5.959,137.71,6.075,137.517,6.191,137.326z"/>
<path opacity="0.05" fill="#542954" d="M-28.702,257.579c-0.047,0.378-0.093,0.762-0.14,1.142
	C-28.795,258.341-28.75,257.957-28.702,257.579z"/>
<path opacity="0.1" fill="#542954" d="M-28.702,257.579c-0.047,0.378-0.093,0.762-0.14,1.142
	C-28.795,258.341-28.75,257.957-28.702,257.579z"/>
<path opacity="0.05" fill="#542954" d="M-34.346,331.077c-0.021,0.569-0.042,1.135-0.063,1.707
	C-34.388,332.212-34.366,331.646-34.346,331.077z"/>
<path opacity="0.1" fill="#542954" d="M-34.346,331.077c-0.021,0.569-0.042,1.135-0.063,1.707
	C-34.388,332.212-34.366,331.646-34.346,331.077z"/>
<path opacity="0.05" fill="#542954" d="M13.454,126.653c-0.123,0.161-0.246,0.323-0.369,0.486
	C13.208,126.977,13.331,126.814,13.454,126.653z"/>
<path opacity="0.1" fill="#542954" d="M13.454,126.653c-0.123,0.161-0.246,0.323-0.369,0.486
	C13.208,126.977,13.331,126.814,13.454,126.653z"/>
<path opacity="0.05" fill="#542954" d="M-20.595,209.815c-0.091,0.406-0.181,0.813-0.271,1.222
	C-20.776,210.629-20.686,210.222-20.595,209.815z"/>
<path opacity="0.1" fill="#542954" d="M-20.595,209.815c-0.091,0.406-0.181,0.813-0.271,1.222
	C-20.776,210.629-20.686,210.222-20.595,209.815z"/>
<path opacity="0.05" fill="#542954" d="M-34.039,323.389c-0.024,0.561-0.047,1.128-0.071,1.691
	C-34.086,324.517-34.063,323.949-34.039,323.389z"/>
<path opacity="0.1" fill="#542954" d="M-34.039,323.389c-0.024,0.561-0.047,1.128-0.071,1.691
	C-34.086,324.517-34.063,323.949-34.039,323.389z"/>
<path opacity="0.05" fill="#542954" d="M15.135,124.497c-0.036,0.045-0.072,0.092-0.107,0.137
	C15.063,124.589,15.099,124.542,15.135,124.497z"/>
<path opacity="0.1" fill="#542954" d="M15.135,124.497c-0.036,0.045-0.072,0.092-0.107,0.137
	C15.063,124.589,15.099,124.542,15.135,124.497z"/>
<path opacity="0.05" fill="#542954" d="M-0.702,149.948c-0.081,0.165-0.161,0.333-0.241,0.498
	C-0.863,150.281-0.783,150.113-0.702,149.948z"/>
<path opacity="0.1" fill="#542954" d="M-0.702,149.948c-0.081,0.165-0.161,0.333-0.241,0.498
	C-0.863,150.281-0.783,150.113-0.702,149.948z"/>
<path opacity="0.05" fill="#542954" d="M-33.206,307.34c-0.035,0.59-0.069,1.184-0.104,1.776
	C-33.275,308.523-33.241,307.93-33.206,307.34z"/>
<path opacity="0.1" fill="#542954" d="M-33.206,307.34c-0.035,0.59-0.069,1.184-0.104,1.776
	C-33.275,308.523-33.241,307.93-33.206,307.34z"/>
<path opacity="0.05" fill="#542954" d="M1.097,146.388c-0.102,0.196-0.204,0.391-0.306,0.588
	C0.893,146.778,0.995,146.584,1.097,146.388z"/>
<path opacity="0.1" fill="#542954" d="M1.097,146.388c-0.102,0.196-0.204,0.391-0.306,0.588
	C0.893,146.778,0.995,146.584,1.097,146.388z"/>
<path opacity="0.05" fill="#542954" d="M2.694,143.386c-0.103,0.188-0.205,0.38-0.308,0.569
	C2.489,143.766,2.591,143.574,2.694,143.386z"/>
<path opacity="0.1" fill="#542954" d="M2.694,143.386c-0.103,0.188-0.205,0.38-0.308,0.569
	C2.489,143.766,2.591,143.574,2.694,143.386z"/>
<path opacity="0.05" fill="#542954" d="M-15.563,189.811c-0.088,0.31-0.176,0.616-0.264,0.928
	C-15.74,190.427-15.651,190.12-15.563,189.811z"/>
<path opacity="0.1" fill="#542954" d="M-15.563,189.811c-0.088,0.31-0.176,0.616-0.264,0.928
	C-15.74,190.427-15.651,190.12-15.563,189.811z"/>
<path opacity="0.05" fill="#542954" d="M-19.521,205.105c-0.043,0.185-0.085,0.372-0.128,0.557
	C-19.606,205.478-19.564,205.29-19.521,205.105z"/>
<path opacity="0.1" fill="#542954" d="M-19.521,205.105c-0.043,0.185-0.085,0.372-0.128,0.557
	C-19.606,205.478-19.564,205.29-19.521,205.105z"/>
<path fill="none" d="M296.351,27.678"/>
</svg>
