<?xml version="1.0" encoding="utf-8"?>
<!-- Generator: Adobe Illustrator 15.0.2, SVG Export Plug-In . SVG Version: 6.00 Build 0)  -->
<!DOCTYPE svg PUBLIC "-//W3C//DTD SVG 1.1//EN" "http://www.w3.org/Graphics/SVG/1.1/DTD/svg11.dtd">
<svg version="1.1" id="Calque_1" xmlns="http://www.w3.org/2000/svg" xmlns:xlink="http://www.w3.org/1999/xlink" x="0px" y="0px"
	 width="513.111px" height="513.111px" viewBox="0 0 513.111 513.111" enable-background="new 0 0 513.111 513.111"
	 xml:space="preserve">
<g id="map" opacity="0.15">
	<path fill="#2D2D2D" d="M498.354,0.555c-2.865,0-2.865,0-5.732,0L341.888,60.288L171.222,0.555L11.939,54.605
		c-5.7,2.833-11.383,5.684-11.383,14.218v429.532c0,8.533,5.683,14.199,14.216,14.199c2.85,0,2.85,0,5.7,0l150.75-59.731
		l170.667,59.731l159.266-54.065c5.732-2.801,11.4-8.533,11.4-14.2V14.771C512.556,6.239,506.888,0.555,498.354,0.555z
		 M341.888,455.688l-170.667-59.732V57.438l170.667,59.733V455.688z"/>
</g>
</svg>
