<?xml version="1.0" encoding="utf-8"?>
<!-- Generator: Adobe Illustrator 15.0.2, SVG Export Plug-In . SVG Version: 6.00 Build 0)  -->
<!DOCTYPE svg PUBLIC "-//W3C//DTD SVG 1.1//EN" "http://www.w3.org/Graphics/SVG/1.1/DTD/svg11.dtd">
<svg version="1.1" id="Calque_1" xmlns="http://www.w3.org/2000/svg" xmlns:xlink="http://www.w3.org/1999/xlink" x="0px" y="0px"
	 width="512px" height="512px" viewBox="0 0 512 512" enable-background="new 0 0 512 512" xml:space="preserve">
<g id="settings-phone">
	<path fill="#0000FF" d="M483.532,355.533c-34.134,0-68.267-5.667-102.399-17.067c-8.532-2.8-19.865,0-28.399,5.733l-62.601,62.533
		C210.484,366.932,145.067,298.666,102.4,219.015l62.583-62.565c8.533-8.533,11.367-19.917,5.684-28.45
		c-8.533-31.283-14.216-65.417-14.216-99.55C156.45,11.383,145.066,0,128,0H28.45C11.382,0,0,11.383,0,28.45
		C0,295.8,216.184,512,483.532,512C500.6,512,512,500.6,512,483.533V384C512,366.934,500.6,355.533,483.532,355.533z"/>
</g>
</svg>
