<?xml version="1.0" encoding="utf-8"?>
<!-- Generator: Adobe Illustrator 15.0.2, SVG Export Plug-In . SVG Version: 6.00 Build 0)  -->
<!DOCTYPE svg PUBLIC "-//W3C//DTD SVG 1.1//EN" "http://www.w3.org/Graphics/SVG/1.1/DTD/svg11.dtd">
<svg version="1.1" id="Calque_1" xmlns="http://www.w3.org/2000/svg" xmlns:xlink="http://www.w3.org/1999/xlink" x="0px" y="0px"
	 width="435.945px" height="435.945px" viewBox="0 0 435.945 435.945" enable-background="new 0 0 435.945 435.945"
	 xml:space="preserve">
<rect y="0" fill="none" width="435.945" height="435.945"/>
<g>
	<path fill="#0A7039" d="M172.803,33.425c-0.61,0-1.202,0.009-1.774,0.018l-0.421,0.006c-2.958,0.043-6.8,2.614-8.44,3.712
		c-0.193,0.13-0.351,0.235-0.464,0.307c-0.763,0.486-1.576,2.052-2.294,3.434c-0.308,0.594-0.6,1.156-0.787,1.415
		c-0.51,0.705-0.84,2.14-1.259,3.956c-0.119,0.516-0.245,1.061-0.382,1.623c-0.476,1.94-0.66,4.403-0.72,5.447
		c-0.138-0.036-0.28-0.054-0.422-0.054c-0.457,0-1.947,0.232-1.947,3.226c0,2.439,0.353,4.431,1.047,5.919
		c0.178,0.381,0.29,0.842,0.41,1.33c0.194,0.794,0.415,1.693,0.981,2.532c0.718,1.063,1.89,1.221,2.523,1.221
		c0.012,0,0.022,0,0.034,0c0.93,6.643-1.659,15.439-2.422,17.123c-0.73,1.61-3.554,3.648-4.094,3.725
		c-0.05-0.016-0.105-0.023-0.166-0.023c-0.571,0-2.298,0.842-5.088,2.296c-0.388,0.202-0.694,0.362-0.843,0.434
		c-0.598,0.29-0.852,0.723-0.934,1.039c-0.113,0.052-0.295,0.133-0.482,0.217c-1.86,0.834-6.799,3.05-9.321,5.28
		c-3.121,2.757-9.1,18.692-9.408,19.678c-0.059,0.19-6.013,19.592-6.59,23.988c-0.56,4.273-0.703,5.729-0.703,9.142
		c0,3.276,3.139,7.155,5.791,7.155c0.342,0,0.672-0.063,0.982-0.184c0.803-0.317,1.828-0.691,2.913-1.087
		c2.593-0.948,5.533-2.021,7.568-3.054c2.471-1.254,4.882-4.045,6.644-6.083c0.353-0.408,0.687-0.795,0.99-1.132
		c1.553-1.732,6.441-6.905,7.773-8.313c0.809,1.792,2.838,7.903,3.737,11.182c0.962,3.505,0.896,9.338,0.481,12.03
		c-0.341,2.222-0.862,3.521-1.281,4.566c-0.087,0.216-0.167,0.418-0.241,0.612c-0.403,1.075-1.348,3.593-1.421,5.425
		c-0.044,1.114-1.69,3.544-2.673,4.997c-0.516,0.761-0.888,1.311-1.008,1.601c-0.158,0.379-0.272,1.054-0.48,2.279
		c-0.29,1.708-0.728,4.291-1.636,8.13c-1.419,6.002-2.689,17.663-2.248,27.454c0.229,5.07-0.003,9.693-0.188,13.408
		c-0.159,3.159-0.283,5.655-0.09,7.396c0.405,3.642,0.633,17.594,0.14,22.104c-0.783,7.161-1.795,16.938-1.539,19.179
		c0.239,2.095,0.933,3.131,1.191,3.453c0.131,3.188,2.55,16.886,4.916,23.286c1.929,5.22,1.854,6.915,1.768,8.877
		c-0.02,0.446-0.04,0.907-0.04,1.428c0,2.225-1.631,3.789-3.89,5.955c-0.493,0.473-1.001,0.961-1.537,1.496
		c-0.752,0.752-1.729,1.609-2.763,2.517c-3.312,2.906-7.064,6.202-7.064,8.994c0,0.351-0.011,0.699-0.022,1.035
		c-0.05,1.488-0.096,2.895,0.912,3.938c1.13,1.168,3.402,1.688,7.367,1.688c7.071,0,9.215-3.422,10.634-5.687
		c0.427-0.683,0.796-1.271,1.205-1.62c0.747-0.636,1.752-0.861,2.817-1.099c1.495-0.334,3.04-0.68,4.036-2.194
		c1.185-1.804,1.044-3.501,0.907-5.144c-0.057-0.686-0.116-1.394-0.072-2.093c0.294-4.694,0.313-7.829,0.057-9.316
		c-0.226-1.313,0.271-5.697,0.67-9.22c0.198-1.744,0.384-3.393,0.455-4.412c0.082-1.201,0.504-3.661,0.95-6.266
		c0.71-4.141,1.515-8.835,1.429-10.984c-0.039-0.957-0.123-2.405-0.221-4.082c-0.258-4.412-0.611-10.454-0.41-12.675
		c0.108-1.198,0.587-3.331,1.141-5.801c0.868-3.866,1.948-8.679,2.288-12.805c0.58-7.028,3.197-19.478,4.388-22.719
		c0.491-1.335,0.837-3.204,1.203-5.182c0.551-2.976,1.177-6.348,2.359-7.571c0.677-0.701,1.177-1.46,1.619-2.13
		c0.911-1.384,1.57-2.383,3.198-2.383c0.034,0,0.067,0,0.102,0.001c2.187,0.055,6.708,5.955,9.137,9.124
		c0.489,0.637,0.91,1.187,1.236,1.591c1.951,2.422,6.627,8.147,9.099,11.129c2.37,2.857,12.251,14.987,13.969,17.668
		c0.309,0.481,0.771,1.232,1.356,2.182c2.729,4.434,7.811,12.687,10.666,15.31c0.85,0.779,1.542,1.39,2.099,1.88
		c1.698,1.496,2.058,1.838,2.058,2.552c0,1.442,3.769,6.798,4.338,7.556c0.463,0.617,0.453,0.865,0.442,1.181
		c-0.014,0.359-0.031,0.807,0.489,1.636c0.737,1.174,1.567,1.349,1.996,1.349c0.015,0,0.029,0,0.044-0.001
		c0.929,2.561,6.681,10.134,8.024,11.734c1.46,1.738,9.831,10.044,12.339,12.48c1.841,1.788,4.616,5.366,6.275,7.504
		c0.549,0.706,0.981,1.266,1.255,1.599c1.134,1.382,7.141,10.255,7.71,11.762c0.289,0.765,0.169,1.412-0.013,2.393
		c-0.16,0.863-0.359,1.938-0.359,3.501c0,3.644,1.508,4.94,2.982,5.729c0.467,0.25,0.839,0.354,1.311,0.485
		c1.127,0.314,2.829,0.79,7.945,3.879c5.717,3.452,11.029,3.825,13.048,3.825c0.511,0,0.83-0.023,0.922-0.031
		c0.044,0.003,0.14,0.006,0.276,0.006c2.703,0,5.593-1.159,5.593-4.412c0-3.487-1.988-5.198-2.943-6.021
		c-0.168-0.145-0.374-0.322-0.426-0.397c-0.11-0.437-1.154-1.624-4.629-5.282c-0.549-0.578-1.023-1.079-1.296-1.375
		c-1.132-1.235-7.381-6.565-8.476-6.917c-0.722-0.232-1.215-0.37-1.435-0.429c-0.503-0.719-3.501-5.046-5.715-9.03
		c-2.469-4.444-18.949-37.398-19.057-37.624c-0.341-0.719-2.602-3.995-3.252-4.645c-0.209-0.209-0.213-0.435-0.204-0.786
		c0.01-0.355,0.021-0.799-0.383-1.128c-0.542-0.439-2.116-2.405-2.889-3.815c-0.415-0.759-1.404-2.041-2.451-3.399
		c-1.058-1.371-2.152-2.791-2.842-3.895c-0.363-0.582-0.733-1.188-1.108-1.798c-1.06-1.731-2.156-3.522-3.174-4.905
		c-1.322-1.797-3.966-6.91-4.353-8.416c-0.234-0.92-2.116-5.785-3.775-10.077c-1.081-2.797-2.104-5.438-2.425-6.359
		c-0.325-0.933-1.48-3.329-2.942-6.365c-2.227-4.618-5.275-10.944-7.383-16.215c-3.472-8.679-7.572-13.273-8.236-13.818
		c-0.142-0.116-0.102-0.434-0.068-0.714c0.04-0.323,0.078-0.627-0.126-0.846c-0.119-0.128-0.277-0.215-0.467-0.256
		c0.315-1.782-0.304-6.289-1.029-11.157c-0.248-1.665-0.462-3.103-0.476-3.584c-0.05-1.822-4.794-15.714-6.804-19.465
		c-2.054-3.834-3.411-14.568-3.411-15.323c0-0.486-0.445-2.73-1.179-6.367c-0.384-1.898-0.779-3.862-1.066-5.405
		c-0.707-3.802-0.926-8.704-0.926-10.059c0-0.946-0.392-1.5-0.606-1.733c0.027-4.971,1.409-7.389,4.224-7.389
		c1.094,0,1.948,0.275,3.029,0.623c1.995,0.643,4.726,1.523,11.058,1.523c4.985,0,8.87-0.638,12.628-1.254
		c3.649-0.599,7.424-1.218,12.143-1.218c4.785,0,7.711,0.417,10.539,0.821c2.802,0.399,5.697,0.812,10.357,0.812
		c4.27,0,10.075-0.188,15.196-0.355c4.382-0.143,8.521-0.277,11.113-0.277c1.076,0,1.848,0.024,2.296,0.07
		c2.095,0.219,4.197,1.388,5.887,2.328c0.771,0.429,1.499,0.834,2.131,1.099c1.51,0.632,2.481,0.852,2.9,0.925
		c0.697,1.3,5.646,1.701,6.216,1.701c1.59,0,6.061-3.421,6.061-5.418c0-1.819-1.871-6.531-1.95-6.731l-0.045-0.112l-0.104-0.06
		l-1.451-0.838c-0.273-0.822-1.304-2.081-1.629-2.464c-0.047-2.599-1.502-3.53-2.865-3.53c-0.609,0-2.129,0.749-4.559,1.97
		c-1.958,0.984-4.177,2.099-5.347,2.408c-0.423,0.111-0.74,0.166-0.969,0.166c-0.277,0-0.369-0.073-0.554-0.217
		c-0.32-0.251-0.76-0.594-2.146-0.594c-1.188,0-2.54-0.325-4.586-0.816c-2.432-0.584-5.763-1.386-10.944-2.166
		c-4.746-0.714-9.469-2.349-13.635-3.792c-4.323-1.497-8.057-2.789-10.905-2.789c-3.879,0-6.577,0.368-9.187,0.724
		c-1.141,0.156-2.32,0.317-3.583,0.444c-2.263,0.229-4.839,0.331-8.354,0.331c-2.235,0-4.73-0.04-7.79-0.1
		c-5.108-0.1-10.283-1.519-13.707-2.459c-1.385-0.38-2.479-0.681-3.223-0.802c-0.713-0.117-2.418-0.173-5.214-0.173
		c-2.621,0-5.682,0.048-8.382,0.09c-1.917,0.031-3.572,0.057-4.581,0.057c-0.706,0-0.9-0.013-0.953-0.021
		c-0.17-0.026-0.17-0.026-0.17-0.269c0-0.234,0-0.855-0.814-0.855c-0.894,0-1.738,0-2.248-0.431
		c-0.462-0.391-0.962-0.395-1.869-0.404c-0.558-0.006-1.321-0.014-2.379-0.109c-2.368-0.216-3.802-2.057-3.927-2.509
		c0.173-0.25,1.021-0.964,1.773-1.598c0.81-0.682,1.728-1.454,2.546-2.232c1.652-1.569,2.634-4.094,3.422-6.123
		c0.135-0.346,0.264-0.679,0.392-0.996c0.8-1.979,1.111-6.413,1.177-7.518c1.346-0.715,1.46-5.713,1.46-5.767
		c0-0.7,0.159-1.348,0.343-2.098c0.275-1.123,0.618-2.519,0.589-4.716c-0.044-3.483-0.696-5.875-2.249-8.256
		c-0.839-1.286-3.393-5.201-7.133-7.071C178.701,33.604,175.542,33.425,172.803,33.425L172.803,33.425z"/>
</g>
</svg>
