<?xml version="1.0" encoding="utf-8"?>
<!-- Generator: Adobe Illustrator 15.0.2, SVG Export Plug-In . SVG Version: 6.00 Build 0)  -->
<!DOCTYPE svg PUBLIC "-//W3C//DTD SVG 1.1//EN" "http://www.w3.org/Graphics/SVG/1.1/DTD/svg11.dtd">
<svg version="1.1" id="Calque_1" xmlns="http://www.w3.org/2000/svg" xmlns:xlink="http://www.w3.org/1999/xlink" x="0px" y="0px"
	 width="435.945px" height="435.946px" viewBox="0 0 435.945 435.946" enable-background="new 0 0 435.945 435.946"
	 xml:space="preserve">
<rect fill="none" width="435.945" height="435.946"/>
<g>
	<g>
		<path fill="#0A7039" d="M327.34,69.279c0.177,1.338,0.28,2.67,0.361,4c0.084,1.331,0.131,2.658,0.165,3.985
			c0.06,2.652,0.025,5.296-0.065,7.935c-0.198,5.275-0.645,10.529-1.329,15.757c-0.684,5.229-1.606,10.432-2.856,15.589
			c-0.637,2.576-1.349,5.142-2.214,7.676c-0.438,1.265-0.903,2.524-1.44,3.762c-0.538,1.232-1.12,2.469-1.893,3.583
			c0.352-2.657,0.465-5.266,0.65-7.887c0.173-2.618,0.363-5.229,0.575-7.838c0.434-5.216,0.972-10.42,1.659-15.61
			c0.685-5.191,1.507-10.369,2.514-15.532c0.512-2.581,1.063-5.159,1.691-7.73C325.8,74.399,326.474,71.831,327.34,69.279z"/>
	</g>
	<g>
		<path fill="#0A7039" d="M196.1,32.484c2.232,0.557,4.437,1.214,6.643,1.869c2.199,0.675,4.388,1.387,6.571,2.117
			c4.366,1.464,8.678,3.085,12.974,4.76c8.57,3.396,16.983,7.226,25.186,11.5c4.1,2.142,8.147,4.393,12.118,6.783
			c3.979,2.376,7.877,4.902,11.693,7.555c3.817,2.653,7.526,5.474,11.131,8.436c3.593,2.976,7.059,6.123,10.359,9.451
			c3.285,3.344,6.4,6.875,9.267,10.621c2.842,3.762,5.455,7.723,7.671,11.92c2.214,4.195,4.071,8.604,5.395,13.185
			c0.662,2.289,1.209,4.613,1.61,6.963c0.396,2.35,0.654,4.723,0.775,7.099c0.06,1.188,0.09,2.378,0.073,3.566l-0.008,0.445
			l-0.006,0.223l-0.002,0.112c-0.005,0.227-0.003,0.093-0.006,0.158l-0.005,0.061l-0.076,0.886l-0.179,1.745
			c-0.256,2.316-0.562,4.618-0.936,6.909c-0.734,4.583-1.678,9.13-2.863,13.614c-1.214,4.476-2.617,8.906-4.414,13.181
			c-0.899,2.135-1.882,4.234-2.975,6.273c-1.109,2.027-2.31,4.005-3.676,5.856c1.092-2.023,2.07-4.094,2.914-6.216
			c0.862-2.114,1.619-4.264,2.285-6.441c1.335-4.353,2.396-8.779,3.198-13.253c0.827-4.468,1.446-8.973,1.9-13.487
			c0.219-2.258,0.41-4.519,0.539-6.773l0.083-1.687l0.028-0.831l-0.025-0.721c-0.046-1.105-0.115-2.209-0.22-3.308
			c-0.415-4.399-1.344-8.734-2.71-12.928c-1.383-4.188-3.178-8.246-5.343-12.112c-2.158-3.87-4.644-7.572-7.39-11.086
			c-2.732-3.525-5.712-6.875-8.87-10.064c-3.142-3.204-6.471-6.24-9.918-9.147c-3.437-2.921-7.017-5.684-10.669-8.359
			c-7.316-5.338-14.987-10.228-22.857-14.807c-7.872-4.579-15.959-8.826-24.178-12.833c-4.102-2.025-8.261-3.934-12.437-5.819
			c-2.088-0.943-4.189-1.861-6.299-2.76C200.352,34.223,198.231,33.347,196.1,32.484z"/>
	</g>
	<g>
		<path fill="#0A7039" d="M272.004,257.883c0.116,6.663,0.649,13.272,1.595,19.784c0.954,6.505,2.34,12.924,4.463,19.019
			c1.058,3.045,2.313,6,3.794,8.802c1.496,2.792,3.21,5.438,5.221,7.793c1.008,1.174,2.072,2.287,3.209,3.312
			c1.126,1.016,2.383,1.974,3.669,2.897c2.57,1.852,5.308,3.516,8.149,5.016c2.833,1.52,5.769,2.883,8.763,4.127
			c2.987,1.266,6.045,2.39,9.133,3.446c6.179,2.11,12.51,3.853,18.907,5.382c6.4,1.522,12.876,2.799,19.398,3.884
			c3.262,0.546,6.537,1.024,9.825,1.47c1.644,0.223,3.29,0.42,4.942,0.599c1.651,0.2,3.307,0.353,4.967,0.516
			c-1.661,0.161-3.328,0.245-4.998,0.326c-1.667,0.062-3.338,0.09-5.01,0.1c-3.345,0.021-6.689-0.1-10.031-0.291
			c-6.682-0.401-13.35-1.178-19.97-2.313c-1.656-0.289-3.307-0.597-4.957-0.927c-1.646-0.333-3.291-0.698-4.931-1.082
			c-3.283-0.758-6.537-1.651-9.771-2.639c-3.232-0.993-6.43-2.126-9.59-3.382c-3.152-1.28-6.262-2.698-9.293-4.304
			c-3.021-1.625-5.974-3.426-8.771-5.493c-1.39-1.043-2.763-2.127-4.08-3.364c-1.309-1.226-2.523-2.54-3.627-3.931
			c-2.214-2.778-4.048-5.801-5.529-8.946c-1.496-3.141-2.657-6.398-3.582-9.693c-1.835-6.6-2.731-13.35-3.012-20.07
			c-0.129-3.362-0.119-6.721,0.067-10.066c0.094-1.673,0.215-3.341,0.379-5.004C271.52,261.187,271.707,259.526,272.004,257.883z"/>
	</g>
	<g>
		<path fill="#0A7039" d="M162.203,257.883c0.238,1.64,0.379,3.289,0.523,4.94c0.122,1.653,0.208,3.309,0.273,4.968
			c0.129,3.316,0.106,6.643-0.031,9.97c-0.293,6.653-1.094,13.327-2.697,19.902c-0.812,3.283-1.822,6.545-3.151,9.721
			c-1.314,3.178-2.959,6.271-5.032,9.146c-1.034,1.438-2.196,2.805-3.477,4.075c-0.641,0.637-1.313,1.246-2.015,1.825
			c-0.354,0.292-0.703,0.567-1.081,0.849l-1.031,0.757c-2.795,1.996-5.726,3.754-8.721,5.354c-3.005,1.579-6.081,2.99-9.199,4.27
			c-3.126,1.256-6.289,2.4-9.488,3.408c-3.201,1-6.422,1.913-9.674,2.688c-1.625,0.393-3.252,0.766-4.886,1.108
			c-1.635,0.337-3.272,0.654-4.913,0.948c-6.565,1.164-13.185,1.952-19.819,2.336c-3.317,0.185-6.637,0.287-9.955,0.249
			c-1.659-0.02-3.315-0.059-4.971-0.127c-1.655-0.09-3.308-0.181-4.956-0.342c1.647-0.163,3.292-0.308,4.93-0.499
			c1.639-0.172,3.275-0.358,4.906-0.572c3.262-0.429,6.511-0.89,9.746-1.429c6.467-1.065,12.882-2.352,19.218-3.899
			c6.333-1.552,12.595-3.337,18.71-5.473c3.055-1.069,6.082-2.207,9.043-3.476c2.969-1.248,5.883-2.608,8.704-4.11
			c2.831-1.483,5.567-3.117,8.16-4.92l0.976-0.687c0.287-0.206,0.588-0.434,0.875-0.66c0.579-0.457,1.138-0.946,1.678-1.46
			c1.081-1.028,2.079-2.163,3.017-3.365c1.87-2.413,3.425-5.13,4.777-7.975c1.337-2.854,2.465-5.847,3.424-8.911
			c1.922-6.133,3.219-12.527,4.189-18.989C161.222,271.035,161.86,264.487,162.203,257.883z"/>
	</g>
	<g>
		<path fill="#0A7039" d="M214.062,42.915c-5.124,2.981-10.147,6.096-15.118,9.278c-4.973,3.178-9.865,6.463-14.688,9.83
			c-9.628,6.755-18.949,13.91-27.63,21.711c-2.161,1.96-4.297,3.942-6.367,5.986c-1.036,1.021-2.057,2.055-3.062,3.102
			c-1.009,1.044-2.005,2.099-2.981,3.169c-1.957,2.138-3.827,4.346-5.632,6.597c-1.803,2.251-3.513,4.57-5.107,6.957
			c-3.206,4.756-5.951,9.798-7.964,15.094c-0.994,2.651-1.814,5.359-2.392,8.117c-0.57,2.758-0.916,5.558-0.993,8.372l-0.009-0.203
			c0.067,0.965,0.162,1.989,0.261,2.987c0.099,1.004,0.201,2.011,0.316,3.016c0.225,2.012,0.497,4.019,0.784,6.026
			c0.287,2.006,0.61,4.007,0.97,6.001c0.351,1.997,0.74,3.986,1.176,5.965c0.858,3.963,1.888,7.888,3.172,11.738
			c0.643,1.924,1.364,3.824,2.193,5.681c0.808,1.869,1.749,3.681,2.82,5.432c-1.34-1.557-2.506-3.27-3.587-5.033
			c-1.059-1.776-2.014-3.617-2.895-5.492c-1.756-3.755-3.172-7.661-4.407-11.613c-0.608-1.979-1.17-3.972-1.692-5.976
			c-0.513-2.006-0.985-4.021-1.422-6.044c-0.438-2.023-0.822-4.058-1.182-6.098c-0.36-2.05-0.676-4.071-0.935-6.185l-0.005-0.045
			l-0.004-0.158c-0.075-3.101,0.155-6.211,0.678-9.266c0.515-3.056,1.294-6.061,2.309-8.972c2.008-5.836,4.889-11.296,8.216-16.39
			c3.353-5.085,7.159-9.82,11.257-14.246c2.041-2.221,4.161-4.36,6.339-6.431c2.176-2.072,4.397-4.093,6.682-6.034
			c9.115-7.791,18.928-14.653,29.12-20.801c5.094-3.079,10.303-5.956,15.591-8.661c2.645-1.352,5.32-2.644,8.015-3.888
			c1.347-0.625,2.696-1.24,4.062-1.822C211.314,44.03,212.677,43.447,214.062,42.915z"/>
	</g>
	<g>
		<path fill="#0A7039" d="M110.107,64.064c1.211,6.223,1.952,12.422,2.618,18.619c0.643,6.194,1.149,12.381,1.596,18.561
			c0.451,6.179,0.822,12.352,1.245,18.515c0.208,3.082,0.434,6.161,0.72,9.237c0.295,3.081,0.619,6.143,1.301,9.235
			c-0.918-1.302-1.645-2.74-2.289-4.201c-0.645-1.462-1.192-2.963-1.69-4.475c-0.987-3.028-1.742-6.111-2.379-9.206
			c-1.251-6.196-2.01-12.449-2.459-18.707c-0.446-6.259-0.576-12.528-0.404-18.796c0.095-3.133,0.259-6.267,0.532-9.397
			c0.141-1.566,0.296-3.131,0.494-4.695C109.586,67.189,109.807,65.625,110.107,64.064z"/>
	</g>
	<g>
		<path fill="#0A7039" d="M306.915,107.886c0.262,4.513,0.524,9.026,0.89,13.526c0.093,1.125,0.191,2.249,0.306,3.369
			c0.115,1.116,0.231,2.244,0.429,3.317c0.24,1.156,0.307,2.299,0.394,3.434c0.076,1.138,0.127,2.272,0.165,3.408
			c0.149,4.542,0.093,9.083-0.107,13.618c-0.196,4.535-0.524,9.067-0.976,13.589c-0.442,4.523-1.055,9.031-1.786,13.523
			c-0.733,4.491-1.603,8.965-2.624,13.409c-0.511,2.223-1.061,4.438-1.651,6.643c-0.599,2.222-1.281,4.416-2.008,6.59
			c-1.46,4.346-3.125,8.61-4.937,12.808c-3.63,8.392-7.829,16.531-12.61,24.337c-4.77,7.81-10.108,15.302-16.15,22.26
			c-3.021,3.479-6.232,6.81-9.664,9.93c-3.431,3.118-7.084,6.031-11.003,8.606c-3.918,2.573-8.117,4.792-12.581,6.458
			c-4.458,1.662-9.195,2.747-14.021,3.007c-4.826,0.256-9.66-0.309-14.281-1.536c-4.625-1.228-9.028-3.096-13.142-5.39
			c-4.115-2.3-7.954-5.009-11.546-7.97c-3.592-2.963-6.945-6.177-10.08-9.571c-6.27-6.791-11.752-14.215-16.58-22.011
			c-4.835-7.793-9.025-15.968-12.48-24.468c-1.718-4.255-3.257-8.592-4.451-13.073c-0.148-0.56-0.291-1.123-0.426-1.688
			l-0.391-1.661l-0.757-3.321c-0.485-2.218-0.949-4.44-1.399-6.664c-0.897-4.448-1.729-8.906-2.503-13.373
			c-0.77-4.468-1.503-8.94-2.129-13.43c-0.635-4.487-1.213-8.982-1.704-13.491c-0.243-2.254-0.47-4.511-0.645-6.776
			c-0.164-2.268-0.316-4.531-0.294-6.841c0.031-2.315,0.342-4.605,0.788-6.838c0.443-2.235,0.983-4.427,1.454-6.63
			c0.471-2.202,0.862-4.42,1.13-6.658c0.27-2.238,0.432-4.492,0.501-6.751c0.154,4.519-0.173,9.065-0.902,13.544
			c-0.349,2.242-0.798,4.462-1.133,6.679c-0.337,2.215-0.538,4.435-0.464,6.642c0.094,2.208,0.361,4.452,0.64,6.68
			c0.282,2.231,0.595,4.461,0.936,6.689c0.681,4.454,1.448,8.898,2.271,13.33c1.647,8.864,3.456,17.698,5.541,26.458
			c0.521,2.191,1.057,4.376,1.611,6.556l0.831,3.268l0.425,1.63c0.141,0.529,0.288,1.059,0.442,1.587
			c1.237,4.227,2.826,8.389,4.593,12.472c1.772,4.082,3.738,8.088,5.858,12.01c2.123,3.919,4.372,7.77,6.787,11.512
			c4.833,7.477,10.216,14.6,16.296,21.018c6.076,6.396,12.846,12.161,20.441,16.336c3.788,2.085,7.772,3.766,11.893,4.844
			c4.113,1.085,8.368,1.559,12.571,1.331c4.206-0.216,8.385-1.151,12.394-2.636c4.015-1.48,7.857-3.509,11.51-5.866
			c7.314-4.734,13.816-10.815,19.717-17.413c5.894-6.623,11.169-13.84,15.964-21.362c4.769-7.541,9.087-15.394,12.832-23.507
			c1.868-4.057,3.594-8.18,5.115-12.367c0.761-2.093,1.463-4.202,2.104-6.326c0.649-2.14,1.262-4.293,1.838-6.458
			c2.307-8.658,4.001-17.493,5.278-26.392c1.273-8.9,2.075-17.887,2.297-26.883c0.021-1.124,0.029-2.248,0.012-3.368
			c-0.027-1.119-0.033-2.244-0.206-3.313c-0.297-2.304-0.35-4.548-0.433-6.816C306.968,116.929,306.91,112.408,306.915,107.886z"/>
	</g>
	<g>
		<path fill="#0A7039" d="M315.461,139.1c0.366,0.826,0.525,1.6,0.634,2.359c0.095,0.757,0.116,1.495,0.064,2.209
			c-0.1,1.433-0.457,2.792-1.021,4.078c-0.568,1.282-1.35,2.499-2.424,3.558c-0.534,0.529-1.154,1.014-1.86,1.416
			c-0.359,0.195-0.733,0.376-1.143,0.508c-0.4,0.136-0.843,0.222-1.294,0.212c0.1-0.893,0.138-1.599,0.205-2.305
			c0.068-0.692,0.152-1.354,0.278-1.991c0.245-1.277,0.628-2.483,1.148-3.653c0.522-1.167,1.173-2.297,2.026-3.374
			c0.424-0.539,0.907-1.061,1.452-1.569C314.086,140.044,314.681,139.55,315.461,139.1z"/>
	</g>
	<g>
		<path fill="#0A7039" d="M119.954,139.1c0.851,0.548,1.517,1.152,2.147,1.77c0.618,0.621,1.177,1.259,1.675,1.919
			c1.004,1.316,1.805,2.7,2.481,4.127c0.673,1.43,1.209,2.905,1.604,4.455c0.202,0.774,0.359,1.571,0.498,2.397
			c0.135,0.838,0.243,1.673,0.375,2.673c-0.508-0.069-0.975-0.242-1.413-0.444c-0.442-0.202-0.847-0.447-1.235-0.705
			c-0.767-0.526-1.446-1.125-2.043-1.769c-1.2-1.287-2.115-2.728-2.826-4.244c-0.705-1.519-1.213-3.116-1.468-4.801
			c-0.131-0.841-0.189-1.708-0.175-2.598c0.012-0.448,0.036-0.898,0.096-1.361C119.728,140.058,119.807,139.589,119.954,139.1z"/>
	</g>
	<path fill="#0A7039" d="M133.522,122.007c0,0,14.775-10.431,28.103-10.431c13.327,0,33.534,5.794,36.359,8.728
		c2.824,2.934,4.326,8.474,0,8.474c-4.327,0-22.272-13.435-40.09-13.435C140.076,115.343,135.302,123.787,133.522,122.007z"/>
	<path fill="#0A7039" d="M303.687,122.007c0,0-14.776-10.431-28.103-10.431c-13.327,0-33.534,5.794-36.358,8.728
		s-4.327,8.474,0,8.474s22.271-13.435,40.09-13.435C297.132,115.343,301.906,123.787,303.687,122.007z"/>
	<path fill="#0A7039" d="M194.61,145.401c0,0-9.018,12.929-25.749,12.929s-28.03-10.539-28.03-10.539s9.234,1.105,9.234-1.52
		c0-1.131-4.293-5.497-4.293-5.497S164.46,160.493,194.61,145.401z"/>
	<path fill="#0A7039" d="M242.6,145.401c0,0,9.018,12.929,25.748,12.929c16.731,0,28.03-10.539,28.03-10.539
		s-9.234,1.105-9.234-1.52c0-1.131,4.292-5.497,4.292-5.497S272.747,160.493,242.6,145.401z"/>
	<path fill="#0A7039" d="M203.559,199.288c0-1.882,7.75,0.652,7.75,1.738C211.309,202.113,203.559,201.171,203.559,199.288z"/>
	<path fill="#0A7039" d="M229.634,199.288c0-1.882-7.75,0.652-7.75,1.738C221.884,202.113,229.634,201.171,229.634,199.288z"/>
	<path fill="#0A7039" d="M225.759,223.08c-5.36,0-2.354,2.825-9.959,2.825s-4.599-2.825-9.958-2.825
		c-5.36,0-23.287,7.388-23.287,7.388s5.432,2.064,8.908,8.148c3.477,6.084,12.06,10.321,24.336,10.321s20.858-4.237,24.336-10.321
		c3.476-6.084,8.908-8.148,8.908-8.148S231.118,223.08,225.759,223.08z M225.578,234.489l-3.477,0.868
		c-0.582,0-0.936,0.138-1.425,0.326c-0.833,0.32-1.975,0.761-4.877,0.761c-2.903,0-4.043-0.44-4.877-0.761
		c-0.489-0.188-0.842-0.326-1.425-0.326l-3.476-0.868l0,0h3.476c0.745,0,1.205,0.178,1.738,0.382
		c0.812,0.315,1.822,0.704,4.563,0.704c2.74,0,3.751-0.389,4.563-0.704c0.533-0.204,0.993-0.382,1.736-0.382H225.578
		L225.578,234.489z"/>
</g>
</svg>
