<?xml version="1.0" encoding="utf-8"?>
<!-- Generator: Adobe Illustrator 15.0.2, SVG Export Plug-In . SVG Version: 6.00 Build 0)  -->
<!DOCTYPE svg PUBLIC "-//W3C//DTD SVG 1.1//EN" "http://www.w3.org/Graphics/SVG/1.1/DTD/svg11.dtd">
<svg version="1.1" id="Calque_1" xmlns="http://www.w3.org/2000/svg" xmlns:xlink="http://www.w3.org/1999/xlink" x="0px" y="0px"
	 width="435.945px" height="435.946px" viewBox="0 0 435.945 435.946" enable-background="new 0 0 435.945 435.946"
	 xml:space="preserve">
<g>
	<ellipse fill="#0A7039" cx="219.788" cy="61.927" rx="23.503" ry="28.134"/>
	<g>
		<path fill="#0A7039" d="M269.934,84.363c12.82,0,10.682,19.943,10.682,19.943s-5.695,51.28-52.703,88.318
			c-47.008,37.036-69.087,34.901-69.087,28.966c0-5.938,36.087-22.556,56.029-42.499c19.942-19.942,31.813-35.373,34.661-50.805
			C252.365,112.853,248.916,84.363,269.934,84.363z"/>
		<path fill="#0A7039" d="M169.642,84.363c-12.82,0-10.684,19.943-10.684,19.943s5.697,51.28,52.706,88.318
			c47.008,37.036,69.086,34.901,69.086,28.966c0-5.938-36.086-22.556-56.028-42.499c-19.943-19.942-31.814-35.373-34.662-50.805
			C187.21,112.853,190.658,84.363,169.642,84.363z"/>
	</g>
	<g>
		<path fill="#0A7039" d="M245.77,255.773c0,17.18-11.633,31.102-25.981,31.102c-14.35,0-25.982-13.922-25.982-31.102
			c0-17.177,11.633-31.099,25.982-31.099C234.137,224.674,245.77,238.596,245.77,255.773z"/>
		<path fill="#0A7039" d="M254.24,247.701c0,0,7.359,19.704-11.396,39.174c0,0,44.395,11.872,54.604,11.872
			c0,0-81.819,7.868-94.015,20.062c0,0,0.3,2.658,4.602,2.658c4.301,0,116.835,0,116.835,0s34.424,0.068,34.424-12.155
			C359.293,297.084,254.24,247.701,254.24,247.701z"/>
		<path fill="#0A7039" d="M256.434,298.747c0,0-33.475-2.671-43.98-2.671c-9.617,0-63.58,2.236-72.633,2.615
			c12.209-0.835,53.283-11.816,53.283-11.816c-18.756-19.47-11.396-39.174-11.396-39.174s-105.056,49.384-105.056,61.61
			c0,12.224,34.425,12.154,34.425,12.154c10.171,0,19.269,0,27.422,0c14.063,0,25.308,0,34.425,0
			c7.384-3.723,22.804-7.817,38.214-11.324c20.271-4.606,40.524-8.193,42.448-8.546
			C256.969,300.973,256.434,298.747,256.434,298.747z"/>
		<rect x="76.652" y="332.934" fill="#0A7039" width="282.641" height="11.039"/>
	</g>
</g>
<rect fill="none" width="435.945" height="435.946"/>
</svg>
