<?xml version="1.0" encoding="utf-8"?>
<!-- Generator: Adobe Illustrator 15.0.2, SVG Export Plug-In . SVG Version: 6.00 Build 0)  -->
<!DOCTYPE svg PUBLIC "-//W3C//DTD SVG 1.1//EN" "http://www.w3.org/Graphics/SVG/1.1/DTD/svg11.dtd">
<svg version="1.1" id="Calque_1" xmlns="http://www.w3.org/2000/svg" xmlns:xlink="http://www.w3.org/1999/xlink" x="0px" y="0px"
	 width="435.945px" height="435.945px" viewBox="0 0 435.945 435.945" enable-background="new 0 0 435.945 435.945"
	 xml:space="preserve">
<rect y="0" fill="none" width="435.945" height="435.945"/>
<path fill="#0A7039" d="M304.432,33.175c0.307,0,0.572,0.118,0.786,0.394c1.329,1.712-9.465,7.591-9.698,8.059
	c-0.233,0.468-0.786,1.462,0.352,1.462c1.137,0,3.92-0.351,5.206-0.351s9.065,0.292,9.008,1.813
	c-0.059,1.521-10.587,1.521-10.587,1.521s-0.484-0.035-1.086-0.035c-0.979,0-2.271,0.09-2.307,0.561
	c-0.03,0.38,0.95,0.497,2.208,0.497s2.793-0.117,3.875-0.204c1.456-0.118,4.132-0.819,5.726-0.819c0.773,0,1.294,0.165,1.294,0.644
	c0,1.391-6.519,2.996-12.089,2.996c-0.283,0-0.563-0.004-0.839-0.013c0,0-0.584,1.638-0.994,1.931c0,0,2.414,2.047,4.862,2.808
	s4.383,0.654,4.383,1.877c0,0.323-0.549,0.467-1.397,0.467c-2.366,0-7.078-1.115-8.843-2.578c0,0-4.387,0.176-5.615,0.409
	c-1.147,0.219-2.957,0.948-4.382,0.948c-0.102,0-0.199-0.004-0.297-0.011c-1.463-0.117-2.128-0.502-2.128-0.502
	s-1.557,2.081-2.259,2.958c-0.702,0.877-14.097,22.286-17.139,26.438s-5.966,5.791-7.37,7.078
	c-1.404,1.287-11.406,12.518-12.108,14.214l0.535,0.309c0,0-2.407,3.727-3.4,4.429c0,0-0.819,2.866-1.872,4.679
	c-1.054,1.813-4.681,5.908-4.914,8.481s3.334,22.871,3.393,24.977c0.06,2.106,0.936,6.728,1.521,10.178
	c0.584,3.451,1.403,21.994,1.11,30.358c0,0,1.639,3.802,1.464,6.201c-0.176,2.398,0.291,4.27,0.291,4.27s0.762,1.58,0.762,2.339
	c0,0.762,0.993,2.458,1.87,5.909c0.878,3.451-3.217,17.197-3.158,19.478c0.06,2.281-2.34,13.862-2.808,15.734
	c-0.467,1.872-1.871,11.758-2.397,13.571c-0.526,1.813-2.808,11.464-2.808,15.266c0,0-0.3,1.117-1.935,1.117
	c-1.634,0-2.198-0.325-2.198-0.325s-2.771,7.104-3.121,8.977c-0.352,1.872,0.937,7.722,0.937,10.88s-0.293,6.317-2.224,10.295
	c-1.93,3.978-5.966,11.114-5.966,12.752s3.158,5.498,3.86,7.311c0.701,1.814,0.878,4.095,2.75,6.669
	c1.871,2.573,4.971,8.481,4.971,9.769s1.171,6.551-3.978,6.551c-0.735,0-1.482,0.012-2.229,0.012c-4.486,0-9.027-0.43-11.633-6.445
	c0,0-0.409-3.627-1.169-4.212c-0.761-0.585-5.674-4.036-5.674-7.429s0.761-1.813,0.761-3.568c0,0-0.761-0.293-0.761-1.17
	s-0.058-6.609,0.819-7.955c0.878-1.346,1.404-3.919,1.404-6.961c0-3.041-2.224-5.906-2.224-8.48s2.457-8.015,2.457-10.003
	s-1.169-7.019-1.169-10.178c0-3.158,1.58-13.278,2.106-14.506c0,0-3.394-5.908-3.394-7.547c0-1.638-0.233-4.736-0.701-5.322
	c-0.023-0.03-0.079-0.045-0.16-0.045c-1.499,0-12.275,5.004-18.265,12.271c0,0-0.489,1.998-3.461,1.998
	c0,0-5.137,8.296-8.063,11.572c-2.925,3.275-4.796,3.918-5.849,5.615c-1.053,1.696-1.403,4.796-2.867,7.019
	c-1.461,2.223-8.305,8.072-9.884,10.704c-1.58,2.633-2.399,5.265-2.399,7.429c0,2.165-0.467,2.341-0.467,5.089
	c0,2.749-0.702-0.525-0.702,3.744s-4.973,6.552-4.973,7.896c0,1.346,0.526,5.44,0.526,6.961s-3.685,6.492-11.347,6.492
	c-7.663,0-5.85-7.487-5.85-10.002c0-2.516,1.053-4.854,2.224-6.376c1.169-1.521,4.152-6.2,4.152-9.417
	c0-3.218,2.281-4.27,3.159-5.206c0.877-0.937,1.521-2.164,2.105-4.271c0.586-2.105,2.516-4.036,2.925-7.312
	s1.813-13.863,5.673-18.835s8.072-7.429,12.752-16.846c0,0-1.229-0.936-1.229-2.574c0-1.637,4.854-13.277,6.317-17.313
	c1.462-4.035,2.983-5.732,3.626-8.364c0.644-2.632,2.283-6.844,3.803-8.365c1.521-1.521,5.674-10.061,5.674-12.166
	c0-2.106,3.626-10.119,5.03-11.113c0,0-0.497-1.726,0.468-2.691c0.965-0.965,3.802-3.86,3.802-5.381s0.877-7.721,1.111-8.949
	c0.234-1.229,1.112-6.259,0.469-7.312c-0.644-1.052-1.521-5.616-1.521-5.616s-1.053,1.053-2.983,1.053l-1.637-0.468
	c0,0-4.271,4.328-5.615,4.972c-0.078,0.037-0.167,0.054-0.268,0.054c-1.658,0-6.35-4.735-8.39-5.728
	c-2.164-1.053-6.609-6.258-8.013-8.072c-1.404-1.813-12.577-16.144-12.87-16.202c-0.292-0.059-1.228-1.112-2.222-2.105
	c-0.995-0.995-0.995-2.458-0.995-2.458s-0.058,0.005-0.167,0.005c-0.434,0-1.669-0.075-3.167-0.823
	c-1.871-0.937-1.404-1.931-1.404-1.931s-1.813-0.936-1.052-1.696c0.761-0.76,1.638-3.1,1.638-3.1s-0.644-0.352-0.644-1.229
	c0-0.877,0-0.877,0-0.877s-1.316-0.819-1.316-1.93c0-0.751,0.802-1.235,1.557-1.235c0.362,0,0.712,0.111,0.959,0.358
	c0,0-0.614-2.544,0.643-3.394c1.258-0.848,2.156-1.366,2.156-1.366s2.494-8.08,3.196-10.888c0.702-2.808,1.229-6.756,0.614-9.827
	S148,91.434,145.807,85.819c-2.194-5.615-4.299-15.354-0.439-25.971c3.861-10.617,12.021-13.688,17.987-13.688
	s20.18,5.967,20.18,22.374c0,16.408-11.494,24.918-15.267,27.902c-3.772,2.983-13.424,13.862-13.687,18.162l-2.194,12.635
	c0,0,2.632,1.403,2.632,2.281c0,0.877,1.579,8.598,2.281,9.563s9.915,12.284,12.108,13.863c2.194,1.579,8.642,5.302,8.642,5.302
	s2.123-3.021,2.648-3.605c0,0,0.351-2.457,0.936-3.334c0.585-0.877,1.814-3.743,2.398-7.838c0.585-4.094-0.994-4.504,0.585-6.317
	c1.58-1.813,3.451-2.047,4.972-5.791c1.521-3.744,2.983-2.34,2.808-3.744c-0.175-1.404-0.877-2.515-0.175-3.217
	c0,0-1.813-5.031-1.93-6.961c0,0-3.159-5.85-3.159-8.54v-2.398c0,0-1.111-0.292-1.111-1.58s2.164-3.1,2.456-3.86
	c0.293-0.761,3.217-7.488,4.095-8.014c0.877-0.526,1.344-2.34,2.748-3.334c1.404-0.994-0.709,0.134-0.354-2.01
	c0.354-2.143,0.354-2.143,5.21-2.143c3.236,0,3.665-0.494,4.389-0.494c0.361,0,0.797,0.124,1.693,0.494
	c2.692,1.111,7.605,5.206,7.605,7.194s2.105,1.989,0.467,5.967v6.902c0,0,8.599-6.639,12.547-8.13c0,0,1.754-3.071,3.334-3.773
	c0.297-0.131,0.63-0.185,0.975-0.185c1.499,0,3.242,1.006,3.242,1.006s9.384-8.805,10.875-12.051
	c1.492-3.246,9.037-13.424,15.53-18.864c6.492-5.44,13.951-16.32,15.53-17.021c1.579-0.702,4.124-1.755,6.054-2.369
	c1.931-0.614,5.663-3.771,8.008-4.124c2.344-0.352,4.095-2.36,7.124-3.111C300.093,36.366,302.83,33.175,304.432,33.175"/>
</svg>
